<?xml version="1.0" encoding="UTF-8"?>
<svg width="24px" height="24px" viewBox="0 0 24 24" version="1.1" xmlns="http://www.w3.org/2000/svg" xmlns:xlink="http://www.w3.org/1999/xlink">
    <title>x</title>
    <g id="x" stroke="none" stroke-width="1" fill="none" fill-rule="evenodd">
        <g transform="translate(1, 1)" fill="#000000" fill-rule="nonzero" id="Shape">
            <path d="M11,0 C4.92525,0 0,4.92525 0,11 C0,17.07475 4.92525,22 11,22 C17.07475,22 22,17.07475 22,11 C22,4.92525 17.07475,0 11,0 Z M11.2346667,2.12025 C13.4988333,2.12483333 15.9243333,3.96091667 16.6411667,4.83541667 L16.8648333,5.11041667 C18.3681667,6.93825 20.1364167,9.08875 20.1364167,11.4959167 C20.1364167,14.905 17.40475,16.8199167 14.4915833,18.37825 C13.178,19.0804167 11.7599167,19.7605833 10.13925,19.7605833 C5.97483333,19.7605833 2.47041667,16.489 2.47041667,12.3245833 C2.47041667,11.6774167 2.62625,11.0183333 2.78391667,10.35375 C2.89575,9.88166667 3.00758333,9.40683333 3.06533333,8.93383333 C3.56766667,4.77308333 5.78508333,2.70508333 10.7855,2.14316667 C10.9346449,2.12665912 11.0846124,2.11870166 11.2346667,2.11929849 L11.2346667,2.12025 Z"></path>
        </g>
    </g>
</svg>
