<?xml version="1.0" encoding="UTF-8"?>
<svg width="24px" height="24px" viewBox="0 0 24 24" version="1.1" xmlns="http://www.w3.org/2000/svg" xmlns:xlink="http://www.w3.org/1999/xlink">
    <title>apple-d</title>
    <g id="apple-d" stroke="none" stroke-width="1" fill="none" fill-rule="evenodd">
        <g id="apple" transform="translate(3, 1)" fill="#FFFFFF" fill-rule="nonzero">
            <path d="M9.13995474,6.32129043 C8.26711644,6.32129043 6.91642681,5.33313047 5.49392136,5.36796357 C3.61566174,5.3927134 1.89392375,6.45237288 0.92625176,8.13077815 C-1.02290295,11.4995053 0.423541096,16.4751382 2.3248186,19.2132029 C3.25750341,20.5460272 4.35775843,22.0456837 5.81617178,21.998934 C7.21565934,21.9393511 7.74046718,21.0941902 9.43918728,21.0941902 C11.1250174,21.0941902 11.6028687,21.998934 13.0852207,21.9631843 C14.5924319,21.9393511 15.5490553,20.6065268 16.4697708,19.2608693 C17.534118,17.7135465 17.9760614,16.2129733 18,16.1304739 C17.9640921,16.1185573 15.0702833,15.0112315 15.0352961,11.6782541 C15.0113575,8.89160632 17.3186705,7.55878203 17.4263942,7.49919911 C16.1106918,5.58337877 14.090642,5.36888023 13.3844532,5.32121389 C11.5430222,5.17821486 10.0008237,6.32037377 9.13995474,6.32037377 L9.13995474,6.32129043 Z M12.2501317,3.51080951 C13.0262949,2.58314914 13.5391334,1.28607461 13.3964225,0 C12.2851189,0.0476663432 10.9454778,0.737911659 10.1444554,1.66648869 C9.42629726,2.48781645 8.80573501,3.80964081 8.97238452,5.07096559 C10.2043019,5.16629827 11.4721271,4.4403032 12.249211,3.51172617" id="Shape"></path>
        </g>
    </g>
</svg>