<?xml version="1.0" encoding="UTF-8"?>
<svg width="24px" height="24px" viewBox="0 0 24 24" version="1.1" xmlns="http://www.w3.org/2000/svg" xmlns:xlink="http://www.w3.org/1999/xlink">
    <title>babel</title>
    <g id="babel" stroke="none" stroke-width="1" fill="none" fill-rule="evenodd">
        <g transform="translate(3, 1)" fill="#000000" fill-rule="nonzero" id="Shape">
            <path d="M12.4263589,0 C10.9659885,0.13475 9.03826298,0.653583333 6.67142423,1.57575 C5.96140073,2.09363959 5.21889111,2.56486945 4.44852718,2.9865 L4.45763741,3.13133333 C4.51594291,3.13133333 4.58153659,3.09191667 4.67628302,3.04333333 C4.7728515,3.03416667 4.83024598,3.07266667 4.83024598,3.16891667 L4.9832979,3.08275 L5.05982387,3.07266667 L5.0689341,3.1405 C5.07804434,3.20741667 4.55329487,3.61991667 3.51381719,4.35966667 L3.59854236,4.4935 L3.5220164,4.5045 L3.36076526,4.44583333 C3.36076526,4.4935 3.29426055,4.52375 3.14211965,4.53291667 L3.15122988,4.60991667 L3.3234133,4.80241667 C3.2444928,4.80124195 3.16654009,4.78474557 3.09383541,4.75383333 C2.75948983,4.78225 2.42514425,5.03158333 2.10081992,5.49266667 L2.18645612,5.62741667 C2.47251746,5.368 2.63467962,5.23325 2.68205284,5.23325 L2.70209535,5.44408333 C2.65472214,5.44408333 2.57819617,5.48258333 2.48344974,5.53025 L2.6647434,5.80066667 C2.99724718,5.43248739 3.37896999,5.11256883 3.79896751,4.85008333 C4.00850288,4.90783333 4.1141816,4.96466667 4.1141816,5.04166667 L4.26723353,5.0325 C5.38323717,4.19741667 6.49013058,3.60066667 7.58700273,3.22666667 L7.59793501,3.3715 C7.39750987,3.67858333 7.2544792,3.83075 7.17795323,3.83991667 C7.18706347,3.94625 7.22532645,4.03241667 7.28272092,4.1195 C7.30185241,4.312 6.80534467,5.57058333 5.79319769,7.91358333 C3.48375342,13.3494167 1.55602794,17.3616667 0,19.97325 C0,20.0209167 0.0373519587,20.0979167 0.085636198,20.1840833 C0.467354995,20.08875 0.715153356,20.0035 0.819921045,19.90725 L0.907379289,19.89625 L0.916489523,20.0410833 L1.06043122,20.031 L1.2116611,19.9448333 C1.2116611,19.9925 1.26905557,20.01175 1.36471303,20.0016667 L1.37564531,20.1474167 C1.38475554,20.2913333 1.30731855,20.5113333 1.1260249,20.80925 C0.963862739,20.9925833 0.8026116,21.3656667 0.621317947,21.9321667 L0.630428181,22 L0.774369875,21.9908333 C1.39386578,21.2905 1.87124203,20.5975 2.19556635,19.9246667 C4.01852414,19.3875 5.40236866,18.8595 6.3662314,18.3406667 C7.33009414,18.2545 8.07531127,18.0060833 8.57090799,17.5835 L8.56088673,17.5065 L8.1973884,17.6119167 L8.1117522,17.6210833 L8.10264197,17.5440833 C8.80959611,17.43775 9.30519283,17.2755 9.57303371,17.06375 C10.9568782,15.9885 11.9963559,15.2304167 12.702399,14.7794167 C14.8888551,13.1660833 15.9192226,11.6105 15.7953234,10.1319167 C15.7862132,9.97791667 15.2988157,9.37291667 14.3540844,8.31691667 C14.3349529,8.11525 14.6683875,7.8265 15.3361676,7.44241667 L17.2365624,5.76125 C17.6556332,5.214 17.9143638,4.33125 18,3.11208333 L17.9717583,2.82333333 C17.8952323,1.969 17.2830246,1.27691667 16.1187367,0.748 C15.4327361,0.27775 14.2010325,0.0284166667 12.4263589,0 Z M14.726693,0.950583333 C16.1387792,1.00833333 16.8648649,1.25766667 16.9031278,1.6995 L16.8457334,1.84433333 L14.726693,0.950583333 Z M13.3765563,2.15783333 C14.3449742,2.14316667 14.8496811,2.40258333 14.8997874,2.94891667 L15.0419071,2.93791667 L15.0136654,2.57308333 L15.1667173,2.56391667 C15.5384148,2.76558333 15.7379289,3.01491667 15.7570604,3.31191667 C15.7761919,3.51358333 15.6714242,3.76475 15.4336471,4.06266667 C15.3379897,4.07183333 15.2805952,4.004 15.271485,3.86008333 L15.118433,3.87108333 L15.0810811,4.30191667 C14.4415427,5.26258333 13.9832979,5.75208333 13.6963255,5.78141667 C13.4385059,6.13616667 13.2754327,6.3195 13.208928,6.32866667 C13.0085029,6.56883333 12.4655329,6.98133333 11.5690859,7.557 C11.2730033,7.58633333 10.1743091,8.00891667 8.27482539,8.844 C8.18011085,8.79884639 8.07441778,8.78228925 7.97054358,8.79633333 L7.9596113,8.66158333 C7.94139083,8.38291667 8.0570908,8.03733333 8.33313088,7.61475 C8.47707258,6.82641667 8.63832372,6.37541667 8.81961737,6.27 L10.402976,2.6895 C10.3847555,2.46858333 10.7191011,2.29533333 11.415123,2.18075 L11.6447009,2.16058333 L11.6629213,2.36316667 C12.0856362,2.29625 12.508351,2.23483333 12.9328879,2.17983333 C13.0804895,2.16748294 13.2284631,2.16014543 13.3765563,2.15783333 L13.3765563,2.15783333 Z M16.67355,2.51533333 L16.6981476,2.51533333 C16.8247798,2.52633333 16.9605223,2.75641667 17.104464,3.19733333 L17.1135742,3.33208333 C17.0361373,3.34125 16.8949286,3.11025 16.6844822,2.65008333 L16.67355,2.51533333 L16.67355,2.51533333 Z M7.71272396,4.79141667 L7.77831764,4.79141667 L7.79836016,5.00225 C7.73094443,5.01141667 7.63710902,5.10858333 7.52232007,5.31025 L7.51138779,5.16725 C7.64530823,5.00408333 7.71181294,4.87758333 7.71181294,4.79141667 L7.71272396,4.79141667 L7.71272396,4.79141667 Z M3.17036137,4.90783333 L3.17947161,4.97383333 C3.13118737,4.97383333 3.05557243,5.01325 2.96082599,5.06091667 L2.88338901,5.07008333 L2.87427877,4.93625 L3.17036137,4.90783333 Z M7.07409657,6.28833333 L7.10233829,6.57708333 L7.02581233,6.58625 L6.9975706,6.29933333 L7.07409657,6.28833333 L7.07409657,6.28833333 Z M6.89189189,6.80808333 C6.87367142,7.04825 6.81536593,7.172 6.69146675,7.18208333 L6.61494078,7.19125 C6.70057698,7.02808333 6.74886122,6.9135 6.73975099,6.82733333 L6.89280292,6.80808333 L6.89189189,6.80808333 Z M6.57758882,7.55608333 L6.58669906,7.62391667 L6.45277862,7.85308333 L6.30883693,7.86408333 L6.29972669,7.79625 C6.44275736,7.78708333 6.51017309,7.711 6.50015184,7.56708333 L6.57758882,7.55608333 L6.57758882,7.55608333 Z M6.25144245,8.22983333 L6.21500152,8.58366667 L6.13756453,8.59283333 L6.11023383,8.23808333 L6.25144245,8.22891667 L6.25144245,8.22983333 L6.25144245,8.22983333 Z M13.9924081,8.4865 L14.3067112,8.68083333 C14.3158214,8.77616667 14.2684482,8.83391667 14.1737018,8.84308333 C14.0397814,8.75691667 13.9350137,8.71841667 13.8584877,8.71841667 L13.8393562,8.50758333 L13.9924081,8.48741667 L13.9924081,8.4865 L13.9924081,8.4865 Z M7.93136957,9.30325 L7.94230185,9.438 L7.64530823,9.46825 L7.636198,9.33258333 L7.93136957,9.30325 Z M12.817188,9.80283333 C13.0267234,9.89908333 13.1333131,9.99533333 13.1433343,10.0714167 L13.1524446,10.1401667 C12.9520194,10.1585 12.7698148,10.0530833 12.5985424,9.823 L12.817188,9.80283333 L12.817188,9.80283333 Z M15.1858488,10.0338333 C15.3480109,10.1016667 15.4236259,10.1695 15.4336471,10.2364167 L15.4810203,10.802 C15.4145156,10.956 15.3480109,11.033 15.271485,11.033 L15.1858488,10.0338333 L15.1858488,10.0338333 Z M11.3641057,10.0934167 C12.1293653,10.0805833 12.7142423,10.2620833 13.1150926,10.648 L13.1424233,10.93675 C12.7998785,11.9359167 12.4181597,12.5125 12.0081992,12.6949167 L10.0986942,14.2220833 C8.67749772,15.1625833 7.91223808,15.6319167 7.79836016,15.6410833 C5.5362891,16.8996667 4.12511388,17.5431667 3.58032189,17.5908333 L3.49377467,17.6 C3.57030064,17.3314167 4.57333738,15.2579167 6.52019435,11.3593333 C7.3792894,11.2823333 8.73398117,10.8780833 10.5760705,10.1493333 L11.024294,10.1108333 C11.1409049,10.1016667 11.2547829,10.09525 11.3641057,10.0925 L11.3641057,10.0934167 L11.3641057,10.0934167 Z M8.58092924,10.5425833 L8.59003948,10.6104167 L8.28575767,10.6388333 L8.27482539,10.571 L8.58092924,10.5425833 Z M3.81992104,15.1900833 C3.72426359,15.6805 3.61858488,15.93075 3.51381719,15.9408333 L3.50470695,15.8720833 C3.48557546,15.62275 3.59034315,15.4018333 3.81992104,15.1900833 Z M10.2890981,15.4980833 L10.2982083,15.6328333 C10.3073186,15.6905833 10.0886729,15.8720833 9.65958093,16.18925 C8.38961433,16.8135 7.64621925,17.24525 7.42575159,17.4661667 C6.05192833,17.9455833 5.37412694,18.2444167 5.38323717,18.359 C4.16246584,18.8494167 3.36076526,19.2050833 2.97995749,19.426 C2.89341026,19.4351667 2.76040085,19.3975833 2.58821743,19.3205833 C2.56908594,19.07125 2.67294261,18.86775 2.92074097,18.7045833 C3.13027634,18.68625 3.34254479,18.7146667 3.53294868,18.80175 C3.76161555,18.68625 4.15244458,18.5505833 4.71636805,18.41675 L4.70543577,18.27375 L4.25721227,18.3104167 C4.31460674,18.2343333 4.74460978,18.0326667 5.56544185,17.69625 L5.79410872,17.6779167 L5.80321895,17.7448333 C5.42150015,17.7741667 5.20194352,17.8979167 5.15365928,18.0995833 C5.16276951,18.18575 5.21196477,18.2343333 5.30671121,18.2251667 C5.58366231,18.0326667 5.72669299,17.9281667 5.72669299,17.8988333 C6.2805952,17.7934167 7.79836016,16.98675 10.2890981,15.4980833 Z M3.37989675,16.1608333 L3.38900698,16.2268333 C3.39811722,16.3230833 3.350744,16.3826667 3.25508655,16.3918333 L3.24597631,16.324 C3.23686608,16.2369167 3.2842393,16.1800833 3.37989675,16.1608333 L3.37989675,16.1608333 Z M6.8144549,17.01975 C6.89553599,17.0179167 6.94108715,17.0646667 6.94928637,17.1398333 C6.76799271,17.1590833 6.43364713,17.303 5.92802915,17.5908333 L5.85150319,17.6 L5.84239295,17.457 C6.19592183,17.4335547 6.52856719,17.2802294 6.77710295,17.0261667 C6.78911114,17.0232948 6.80128007,17.0211521 6.81354388,17.01975 L6.8144549,17.01975 L6.8144549,17.01975 Z M3.47646523,18.1591667 L3.48557546,18.2343333 C3.42726997,18.2343333 3.35985424,18.27375 3.26419678,18.3214167 L3.12207713,18.3305833 C3.1129669,18.2636667 3.15122988,18.2059167 3.24688734,18.1765833 L3.47646523,18.15825 L3.47646523,18.1591667 L3.47646523,18.1591667 Z M1.72912238,19.03275 L1.89037352,19.09875 C1.83297905,19.5305 1.70999089,19.7523333 1.48952323,19.7715833 C1.34399201,19.7012664 1.18345343,19.6682041 1.02216824,19.6753333 L1.00303674,19.4645 C0.993926511,19.3774167 1.04221075,19.32975 1.14697844,19.3013333 C1.24263589,19.2921667 1.29911934,19.35725 1.3091406,19.5011667 C1.5660492,19.1849167 1.70999089,19.03275 1.72821136,19.03275 L1.72912238,19.03275 Z"></path>
        </g>
    </g>
</svg>