<?xml version="1.0" encoding="UTF-8"?>
<svg width="24px" height="24px" viewBox="0 0 24 24" version="1.1" xmlns="http://www.w3.org/2000/svg" xmlns:xlink="http://www.w3.org/1999/xlink">
    <title>binary</title>
    <g id="binary" stroke="none" stroke-width="1" fill="none" fill-rule="evenodd">
        <g transform="translate(2.5, 0)" fill="#000000" fill-rule="nonzero" id="Combined-Shape">
            <path d="M11.54725,0 C11.9671418,0 12.3698032,0.158175938 12.6666667,0.4395 L18.5360833,6 C18.8330365,6.2812391 19,6.66270778 19,7.0605 L19,21 C19,22.6568542 17.582235,24 15.8333333,24 L3.16666667,24 C1.41776496,24 0,22.6568542 0,21 L0,3 C0,1.34314575 1.41776496,0 3.16666667,0 Z M5.00321691,14.4460227 C3.54503676,14.4460227 2.72863051,15.5965909 2.72863051,17.6505682 C2.72863051,19.7088068 3.54503676,20.859375 5.00321691,20.859375 C6.45703125,20.859375 7.2734375,19.7088068 7.2734375,17.6505682 C7.2734375,15.5965909 6.45703125,14.4460227 5.00321691,14.4460227 Z M11.2681526,14.578125 L10.2378217,14.578125 L8.46530331,15.7201705 L8.46530331,16.7215909 L10.1592371,15.6349432 L10.2334559,15.6349432 L10.2334559,19.8622159 L8.47403493,19.8622159 L8.47403493,20.7272727 L12.9446232,20.7272727 L12.9446232,19.8622159 L11.2681526,19.8622159 L11.2681526,14.578125 Z M6.23000919,17.2883523 C6.234375,17.4034091 6.23874081,17.5269886 6.23874081,17.6505682 C6.23874081,19.1803977 5.80652574,19.9985795 5.00321691,19.9985795 C4.46622243,19.9985795 4.09949449,19.640625 3.91176471,18.9545455 L6.23000919,17.2883523 Z M5.00321691,15.3068182 C5.53584559,15.3068182 5.90693934,15.6647727 6.09466912,16.3551136 L3.77205882,18.0170455 C3.76769301,17.9019886 3.76332721,17.7784091 3.76332721,17.6505682 C3.76332721,16.125 4.19554228,15.3068182 5.00321691,15.3068182 Z M11.875,2.25 L11.875,5.25 C11.875,6.07842712 12.5838825,6.75 13.4583333,6.75 L16.625,6.75 L11.875,2.25 Z"></path>
        </g>
    </g>
</svg>