<?xml version="1.0" encoding="UTF-8"?>
<svg width="24px" height="24px" viewBox="0 0 24 24" version="1.1" xmlns="http://www.w3.org/2000/svg" xmlns:xlink="http://www.w3.org/1999/xlink">
    <title>buildkite</title>
    <g id="buildkite" stroke="none" stroke-width="1" fill="none" fill-rule="evenodd">
        <g transform="translate(0, 4)" fill="#14CC80" fill-rule="nonzero" id="Shape">
            <path d="M23.613004,4.24369381 L15.945004,0.387693811 L15.945004,8.09969381 L23.613004,4.24469381 L23.613004,4.24369381 Z M8.16600404,11.9576938 L8.16600404,4.24369381 L0.387004038,0.387693811 L0.387004038,8.10069381 L8.16700404,11.9576938 L8.16600404,11.9576938 Z M0.183004038,0.0586938112 C0.296903093,-0.0129847111 0.440115983,-0.0194425868 0.560004038,0.0416938112 L8.16600404,3.81269381 L15.773004,0.0416938112 C15.8818787,-0.0128917032 16.0101293,-0.0128917032 16.119004,0.0416938112 L23.787004,3.89869381 C23.9175486,3.96414375 24.000002,4.097661 24.000002,4.24369381 L24.000002,11.9536938 C24.000002,12.0999548 23.9175433,12.2337256 23.787004,12.2996938 L16.119004,16.1596938 C15.9989662,16.2193034 15.8566966,16.2129221 15.7424774,16.1428053 C15.6282582,16.0726886 15.5581776,15.9487125 15.557004,15.8146938 L15.557004,8.72469381 L8.33800404,12.3046938 C8.22946167,12.3576939 8.1025464,12.3576939 7.99400404,12.3046938 L0.215004038,8.44669381 C0.0835243488,8.3814619 0.0002609383,8.2474659 2.00981222e-06,8.10069381 L2.00981222e-06,0.387693811 C-0.000430248319,0.253647266 0.0688888586,0.129024391 0.183004038,0.0586938112 Z"></path>
        </g>
    </g>
</svg>