<?xml version="1.0" encoding="UTF-8"?>
<svg width="24px" height="24px" viewBox="0 0 24 24" version="1.1" xmlns="http://www.w3.org/2000/svg" xmlns:xlink="http://www.w3.org/1999/xlink">
    <title>circleci-d</title>
    <g id="circleci-d" stroke="none" stroke-width="1" fill="none" fill-rule="evenodd">
        <g id="circleci" transform="translate(1, 1)" fill="#FFFFFF" fill-rule="nonzero">
            <path d="M8.17438007,11 C8.17413324,10.3058318 8.45400414,9.64002506 8.95237226,9.14917398 C9.45074039,8.65832291 10.1267435,8.3826734 10.8315424,8.38291651 C12.2977185,8.38644176 13.4855428,9.55594009 13.4896353,11 C13.486054,12.4444179 12.2980806,13.6144727 10.8315424,13.618 C9.36536772,13.6139692 8.17795932,12.4440612 8.17438007,11 Z M10.8315424,0 C5.61680345,0 1.24900584,3.52 0.00930704797,8.27291667 C0,8.30591667 0,8.33708333 0,8.38291667 C0,8.66983333 0.234537609,8.91091667 0.535155258,8.91091667 L5.03511295,8.91091667 C5.24917506,8.91091667 5.43810813,8.79175 5.51628733,8.60566667 C6.44420002,6.62566667 8.47592859,5.23966667 10.8324731,5.23966667 C14.0624401,5.24320388 16.6798059,7.82150118 16.6828835,11.00275 C16.6828835,14.1835833 14.058296,16.7685833 10.8287503,16.7685833 C8.54093686,16.7673943 6.46415977,15.4516418 5.51442592,13.4016667 C5.42493188,13.2186289 5.23942179,13.0998838 5.03325154,13.0936667 L0.535155258,13.0936667 C0.239446684,13.0941723 0,13.3304179 0,13.6216667 C0,13.6555833 0.0130298672,13.6876667 0.0130298672,13.7316667 C1.2415602,18.48 5.61587275,22 10.8315424,22 C16.996531,22 22,17.0729167 22,11 C22,4.92891667 16.996531,0 10.8315424,0 Z" id="Shape"></path>
        </g>
    </g>
</svg>