<?xml version="1.0" encoding="UTF-8"?>
<svg width="24px" height="24px" viewBox="0 0 24 24" version="1.1" xmlns="http://www.w3.org/2000/svg" xmlns:xlink="http://www.w3.org/1999/xlink">
    <title>cocoapods</title>
    <g id="cocoapods" stroke="none" stroke-width="1" fill="none" fill-rule="evenodd">
        <g transform="translate(0, 3.5)" fill="#EE3322" fill-rule="nonzero" id="Shape">
            <path d="M8.812,13.756 C5.844,13.756 3.856,11.448 3.856,8.58 C3.856,5.875 5.632,3.404 8.766,3.404 C11.173,3.404 12.622,4.849 12.973,6.761 L16.923,6.761 C16.479,3.007 13.51,0 8.718,0 C3.131,0 0,4.103 0,8.58 C0,13.15 3.295,17.16 8.766,17.16 C13.346,17.16 16.315,14.338 16.946,10.888 L12.926,10.888 C12.459,12.497 11.01,13.756 8.812,13.756 Z M24,8.648 L20.534,16.703 L18.154,15.681 L21.146,8.626 L18.136,1.53 L20.569,0.488 L24,8.648 Z"></path>
        </g>
    </g>
</svg>