<?xml version="1.0" encoding="UTF-8"?>
<svg width="24px" height="24px" viewBox="0 0 24 24" version="1.1" xmlns="http://www.w3.org/2000/svg" xmlns:xlink="http://www.w3.org/1999/xlink">
    <title>codecov</title>
    <g id="codecov" stroke="none" stroke-width="1" fill="none" fill-rule="evenodd">
        <g transform="translate(1, 1.5)" fill="#F01F7A" fill-rule="nonzero" id="Path">
            <path d="M11.0054717,0.000992731042 C4.94173727,0.00555020289 0.00458332153,4.8774876 0,10.8650941 L0,10.8924389 L1.87182851,11.9771172 L1.89749511,11.9607103 C2.79004094,11.3521522 3.84760787,11.0278976 4.92982064,11.0309861 C5.26898643,11.0309861 5.60173558,11.0619769 5.92440141,11.1221355 L5.8914015,11.1166666 C6.87717406,11.2907172 7.79173987,11.7432061 8.52589471,12.4201035 L8.52222805,12.4182805 L8.84306056,12.7154277 L9.02456009,12.3198391 C9.20055964,11.9370115 9.40405912,11.5778827 9.62955854,11.2506562 C9.72122497,11.119401 9.82022471,10.9863229 9.93389109,10.8441297 L10.1218073,10.6098757 L9.89080786,10.4184619 C8.88132638,9.57665822 7.66995376,9.008929 6.37448359,8.77048005 L6.32681704,8.7631881 C5.07985535,8.53818444 3.79664897,8.61668157 2.58682667,8.99197319 L2.64182653,8.97738928 C3.53282424,5.09806924 6.96298207,2.39366545 11.0137216,2.39093097 C13.2806422,2.3835099 15.4573858,3.27323697 17.0637061,4.86381519 C18.207094,5.98483069 19.0047067,7.40725003 19.3627001,8.96371686 C18.6213562,8.73420819 17.8493159,8.6177338 17.0728727,8.61826049 L16.9317064,8.61826049 C16.6053739,8.62372946 16.2900414,8.64833981 15.9820422,8.68935705 L16.0232921,8.68479958 L15.9847922,8.69026855 C15.8656258,8.70576395 15.7464595,8.72399384 15.6272931,8.74495821 C15.5750432,8.75407315 15.5227934,8.76501109 15.4714602,8.77503753 C15.3510076,8.79937158 15.231192,8.82672512 15.1121278,8.85707202 L14.9856281,8.88806283 C14.8368711,8.92779896 14.6892331,8.971567 14.5428792,9.01931802 L14.5153793,9.02843296 C14.1908801,9.13781228 13.866381,9.27271345 13.5528818,9.42949048 L13.5281318,9.44133991 C13.3820679,9.51455612 13.2383844,9.59237637 13.0972996,9.67468247 L13.0652164,9.69473534 C12.3323162,10.1288764 11.6789116,10.6836653 11.132888,11.3354252 L11.1228047,11.3481861 L11.0540549,11.4320436 C10.9330552,11.5806172 10.8175555,11.7328368 10.7075558,11.8905253 C10.6268893,12.0090195 10.5453062,12.1366288 10.4435564,12.3025207 L10.3885566,12.3973161 C10.3133901,12.5267483 10.2418903,12.6580035 10.1740571,12.7910817 L10.1593905,12.8184265 C10.0035576,13.1283346 9.86880792,13.4537381 9.75605821,13.7864336 L9.74047492,13.8347428 C9.47352808,14.6324541 9.34640132,15.4698417 9.36464255,16.3103615 L9.36464255,16.303981 L9.36464255,16.4060684 C9.36922587,16.5373236 9.37655919,16.6685788 9.38572583,16.7989225 L9.3838925,16.7651972 C9.39489247,16.8909834 9.40772577,17.0158581 9.4223924,17.1407328 L9.42697572,17.1790156 L9.43889236,17.2728995 C9.45539232,17.3886593 9.4737256,17.5025961 9.49572555,17.6174444 C9.71664165,18.7713963 10.2703069,19.9253481 11.0953048,20.9535138 L11.132888,21 L11.1713879,20.9544253 C11.5004704,20.5679517 12.3163016,19.3410802 12.3859681,18.6055043 L12.3859681,18.5918319 L12.3804681,18.5799825 C11.9944055,17.8507013 11.7930324,17.0388016 11.793803,16.2146546 C11.793803,13.4655875 13.9662974,11.1832056 16.7401236,11.0173137 L16.9234564,11.0109332 C18.0557229,10.9852601 19.1677782,11.3118964 20.1042816,11.9452149 L20.1290315,11.9634448 L22,10.8787665 L22,10.8514217 C22.0093395,7.9661516 20.8495722,5.19873708 18.7824516,3.17390463 C16.717327,1.13085309 13.9194893,-0.0110926931 11.0063883,0 L11.0054717,0.000992731042 Z"></path>
        </g>
    </g>
</svg>