<?xml version="1.0" encoding="UTF-8"?>
<svg width="24px" height="24px" viewBox="0 0 24 24" version="1.1" xmlns="http://www.w3.org/2000/svg" xmlns:xlink="http://www.w3.org/1999/xlink">
    <title>cplusplus-d</title>
    <g id="cplusplus-d" stroke="none" stroke-width="1" fill="none" fill-rule="evenodd">
        <g id="cplusplus" transform="translate(0.25, 8)" fill="#FFFFFF" fill-rule="nonzero">
            <rect id="Rectangle" x="0" y="6.42857143" width="1.07142857" height="1.07142857"></rect>
            <polygon id="Path" points="2.14285714 7.5 8.57142857 7.5 8.57142857 6 3.75 6 3.75 1.5 8.57142857 1.5 8.57142857 0 2.14285714 0"></polygon>
            <path d="M9.64285714,7.5 L11.25,7.5 L11.25,4.5 L16.0714286,4.5 L16.0714286,0 L9.64285714,0 L9.64285714,7.5 Z M11.25,1.5 L14.4642857,1.5 L14.4642857,3 L11.25,3 L11.25,1.5 Z" id="Shape"></path>
            <path d="M17.1428571,0 L17.1428571,7.5 L18.75,7.5 L18.75,4.5 L23.5714286,4.5 L23.5714286,0 L17.1428571,0 Z M21.9642857,1.5 L21.9642857,3 L18.75,3 L18.75,1.5 L21.9642857,1.5 Z" id="Shape"></path>
        </g>
    </g>
</svg>