<?xml version="1.0" encoding="UTF-8"?>
<svg width="24px" height="24px" viewBox="0 0 24 24" version="1.1" xmlns="http://www.w3.org/2000/svg" xmlns:xlink="http://www.w3.org/1999/xlink">
    <title>csv</title>
    <g id="csv" stroke="none" stroke-width="1" fill="none" fill-rule="evenodd">
        <g transform="translate(2, 0)" fill="#000000" fill-rule="nonzero" id="Shape">
            <path d="M20,6.74662669 L20,20.9895052 C20,22.6455315 18.7208136,23.988006 17.1428571,23.988006 L15.7142857,23.988006 L15.7142857,22.4887556 L17.1428571,22.4887556 C17.9318354,22.4887556 18.5714286,21.8175184 18.5714286,20.9895052 L18.5714286,6.74662669 L15.7142857,6.74662669 C14.5308184,6.74662669 13.5714286,5.7397708 13.5714286,4.49775112 L13.5714286,1.49925037 L5.71428571,1.49925037 C4.9253075,1.49925037 4.28571429,2.17048763 4.28571429,2.99850075 L4.28571429,16.4917541 L2.85714286,16.4917541 L2.85714286,2.99850075 C2.85714286,1.34247451 4.13632929,0 5.71428571,0 L13.5714286,0 L20,6.74662669 Z M5.02428571,22.2503748 C5.04082305,22.7280658 5.24887713,23.1761956 5.59714286,23.4842579 C5.78285714,23.6461769 6.01047619,23.7721139 6.28,23.862069 C6.55047619,23.9530235 6.86714286,23.9985007 7.23,23.9985007 C7.71285714,23.9985007 8.12190476,23.9195402 8.45714286,23.7616192 C8.79428571,23.6036982 9.05095238,23.3838081 9.22714286,23.101949 C9.4052381,22.818091 9.49428571,22.4902549 9.49428571,22.1184408 C9.49428571,21.7826087 9.43047619,21.5027486 9.30285714,21.2788606 C9.17215492,21.0541866 8.98739037,20.8695883 8.76714286,20.7436282 C8.51435111,20.5963487 8.24172215,20.4901921 7.95857143,20.4287856 L7.07142857,20.2128936 C6.862745,20.1710709 6.66557728,20.0809264 6.49428571,19.9490255 C6.36212504,19.8420636 6.28586273,19.675879 6.28857143,19.5007496 C6.28857143,19.2668666 6.37666667,19.0749625 6.55285714,18.9250375 C6.73190476,18.7731134 6.97571429,18.6971514 7.28428571,18.6971514 C7.48809524,18.6971514 7.66428571,18.7311344 7.81285714,18.7991004 C7.95034258,18.856228 8.07140753,18.9497113 8.16428571,19.0704648 C8.25220857,19.18176 8.31125757,19.3149965 8.33571429,19.4572714 L9.40714286,19.4572714 C9.38871188,19.1520833 9.2897899,18.8582836 9.12142857,18.6086957 C8.94141004,18.3390684 8.69434491,18.1264516 8.40714286,17.994003 C8.05652973,17.8318686 7.6758244,17.7540093 7.29285714,17.7661169 C6.8747619,17.7661169 6.5052381,17.8410795 6.18428571,17.9910045 C5.86333333,18.13993 5.61238095,18.3503248 5.43142857,18.6221889 C5.25047619,18.8950525 5.16,19.2143928 5.16,19.5802099 C5.16,19.882059 5.21809524,20.143928 5.33428571,20.3658171 C5.45238095,20.5887056 5.62,20.7721139 5.83714286,20.916042 C6.05428571,21.0589705 6.31095238,21.1654173 6.60714286,21.2353823 L7.49,21.4512744 C7.7852381,21.5242379 8.00571429,21.6206897 8.15142857,21.7406297 C8.29534967,21.8567008 8.37637312,22.0390723 8.36857143,22.2293853 C8.37179551,22.383988 8.32938154,22.5358539 8.24714286,22.6641679 C8.15509595,22.7957308 8.0285045,22.8962835 7.88285714,22.9535232 C7.72380952,23.0234883 7.52714286,23.0584708 7.29285714,23.0584708 C7.12619048,23.0584708 6.97380952,23.0384808 6.83571429,22.9985007 C6.70906812,22.9627872 6.58922359,22.9044647 6.48142857,22.826087 C6.28943088,22.6952379 6.157574,22.4868531 6.11714286,22.2503748 L5.02428571,22.2503748 Z M1.15142857,20.5292354 C1.15142857,20.1564218 1.2,19.84008 1.29714286,19.5802099 C1.38202812,19.3407716 1.53204413,19.1327656 1.72857143,18.982009 C1.9284268,18.8400756 2.1659624,18.7681758 2.40714286,18.7766117 C2.62142857,18.7766117 2.81095238,18.8250875 2.97571429,18.922039 C3.13671033,19.0123197 3.27108933,19.1471253 3.36428571,19.3118441 C3.463853,19.4852543 3.52261844,19.6810657 3.53571429,19.8830585 L4.62857143,19.8830585 L4.62857143,19.7751124 C4.60940716,19.2167476 4.36790191,18.6924355 3.96285714,18.3298351 C3.75852055,18.1459535 3.52091838,18.0072515 3.26428571,17.922039 C2.98577437,17.8219115 2.69294763,17.7727209 2.39857143,17.7766117 C1.89,17.7766117 1.45619048,17.888056 1.09714286,18.1109445 C0.74,18.3328336 0.467619048,18.6486757 0.28,19.0584708 C0.0942857143,19.4682659 0.000952380952,19.9575212 0,20.5262369 L0,21.2728636 C0,21.8405797 0.0919047619,22.3283358 0.275714286,22.7361319 C0.463333333,23.1429285 0.735714286,23.4557721 1.09285714,23.6746627 C1.45,23.8915542 1.8852381,24 2.39857143,24 C2.81666667,24 3.19047619,23.918041 3.52,23.7541229 C3.84952381,23.5902049 4.11142857,23.3633183 4.30571429,23.0734633 C4.50279693,22.7757539 4.61480449,22.4251869 4.62857143,22.0629685 L4.62857143,21.9490255 L3.53714286,21.9490255 C3.52361643,22.1420517 3.46577983,22.3287754 3.36857143,22.4932534 C3.2733661,22.6524542 3.13916842,22.7819001 2.98,22.868066 C2.80116508,22.9572569 2.60511792,23.0018952 2.40714286,22.9985007 C2.16584041,23.0052306 1.92810208,22.9363309 1.72428571,22.8005997 C1.52847194,22.6546227 1.37951821,22.4496772 1.29714286,22.2128936 C1.19272346,21.911942 1.14328915,21.593032 1.15142857,21.2728636 L1.15142857,20.5292354 Z M12.9214286,23.8845577 L11.56,23.8845577 L9.64857143,17.8890555 L10.9585714,17.8890555 L12.2385714,22.5937031 L12.2928571,22.5937031 L13.5614286,17.8890555 L14.8171429,17.8890555 L12.9214286,23.8845577 Z"></path>
        </g>
    </g>
</svg>