<?xml version="1.0" encoding="UTF-8"?>
<svg width="24px" height="24px" viewBox="0 0 24 24" version="1.1" xmlns="http://www.w3.org/2000/svg" xmlns:xlink="http://www.w3.org/1999/xlink">
    <title>deno</title>
    <g id="deno" stroke="none" stroke-width="1" fill="none" fill-rule="evenodd">
        <g transform="translate(1, 1)" fill="#000000" fill-rule="nonzero" id="Shape">
            <path d="M10.1346306,0.00752540612 C10.0832951,0.0130251862 9.91828826,0.0322744163 9.76886537,0.0451072364 C7.65311055,0.266931698 5.5703571,1.16431247 3.87078628,2.58508899 C3.41518397,2.98657293 2.98524939,3.41738903 2.58281595,3.87295414 C1.17567399,5.55313695 0.353389725,7.43864487 0.0508771199,9.67063894 C-0.01695904,10.1656191 -0.01695904,11.8375523 0.0508771199,12.3325325 C0.353389725,14.5645265 1.17659069,16.4500345 2.58373266,18.1302173 C2.98524939,18.586699 3.41518397,19.0165985 3.87170299,19.4180824 C5.552023,20.8251095 7.4376849,21.6473266 9.66894454,21.9498145 C10.1639652,22.0167285 11.8360348,22.0167285 12.3310555,21.9498145 C14.5632318,21.6473266 16.4488937,20.8241929 18.1292137,19.4180824 C18.5857327,19.0165985 19.0156673,18.586699 19.417184,18.1302173 C20.824326,16.4500345 21.6466103,14.5645265 21.9491229,12.3325325 C22.016959,11.8375523 22.016959,10.1656191 21.9491229,9.67063894 C21.6466103,7.44047813 20.8234093,5.55497021 19.417184,3.8747874 C19.0155612,3.41866654 18.5853718,2.9885123 18.1292137,2.58692225 C16.4553106,1.1835617 14.5494812,0.350345029 12.3484729,0.0561067965 C12.1101296,0.0231081162 11.7636152,0.0102752961 11.1219217,0.00385888609 C10.7931469,-0.00208045857 10.4642839,-0.00116362926 10.1355473,0.00660877611 L10.1346306,0.00752540612 L10.1346306,0.00752540612 Z M10.2684695,1.17622866 C10.2684695,1.49246602 10.2904704,2.17993852 10.319805,2.83166246 C10.3363057,3.1506497 10.3555565,3.60804807 10.3638068,3.84637187 C10.3922247,4.68967148 10.4829785,6.90608284 10.496729,7.10315829 L10.5095629,7.30023374 L10.3876412,7.28648429 C10.339956,7.28398013 10.2929493,7.27408478 10.248302,7.25715213 C10.2257192,7.11920264 10.2128537,6.97983754 10.2098004,6.84008548 C10.1282137,5.09207205 10.0539606,3.343142 9.98520772,1.59421195 L9.96870703,0.993819293 L10.0447935,0.982819733 C10.0851285,0.977319953 10.1529647,0.969070283 10.1960498,0.966320393 L10.2693862,0.963570503 L10.2693862,1.17622866 L10.2684695,1.17622866 Z M12.8581608,1.11206456 C12.8618276,1.11389782 12.8700779,1.93061516 12.8774116,2.92699198 C12.888412,3.92428542 12.9021626,4.81983294 12.9094962,4.91607909 C12.9186633,5.01690839 12.9149965,5.10398824 12.9012459,5.10857139 C12.853077,5.11756754 12.8036587,5.11756754 12.7554898,5.10857139 L12.630818,5.09940509 L12.6124839,4.31110329 L12.5831493,3.23864618 C12.5602317,2.75833206 12.5418976,1.13223042 12.5574816,1.09373196 C12.568482,1.06256654 12.5978166,1.05981665 12.711488,1.07814925 C12.7912413,1.09464859 12.8554106,1.10748141 12.8581608,1.1102313 L12.8581608,1.11206456 L12.8581608,1.11206456 Z M6.60073336,2.01677838 C6.61815076,2.04152739 6.74465603,3.53196778 6.90232926,5.48163981 C6.95366474,6.14527993 7.00500021,6.75117237 7.01233385,6.82725266 C7.02700113,6.96474716 7.02425101,6.97024694 6.93716405,7.02432811 C6.90331625,7.0472722 6.86665142,7.06575716 6.82807617,7.07932591 C6.81890912,7.07932591 6.80332514,7.00782877 6.7959915,6.92166555 C6.75932331,6.56967962 6.61265053,4.87116422 6.50906288,3.64288001 C6.47147798,3.16348252 6.43022626,2.6831684 6.38714113,2.2037709 C6.37430726,2.084609 6.37705738,2.07360944 6.44764365,2.03602761 C6.5328972,1.99019611 6.58239927,1.98194644 6.60073336,2.01769501 L6.60073336,2.01677838 Z M14.0489604,2.56033997 C14.1259636,2.58783888 14.1323805,2.6006717 14.1497979,2.75558217 C14.1772991,3.02598802 14.168132,4.31935296 14.1387974,4.31935296 C14.0590441,4.31935296 13.8967874,4.22768996 13.8848702,4.17635868 C13.8702029,3.89220337 13.8647027,3.60804807 13.8683695,3.32389277 C13.8683695,2.44484459 13.8564524,2.49617587 14.0489604,2.5612566 L14.0489604,2.56033997 Z M9.05291887,2.68866818 C9.05291887,2.76199858 9.07125297,3.16348252 9.09233718,3.58879884 L9.14917288,4.785001 C9.16750698,5.25614882 9.17392391,5.23964948 8.99241635,5.25064904 C8.90257927,5.25339893 8.90257927,5.25339893 8.89799575,5.11773769 C8.89249552,5.0416574 8.87874495,4.80608349 8.86316097,4.58975881 C8.84941039,4.37343413 8.81732572,3.90503619 8.79532481,3.54846712 C8.77955378,3.2857618 8.76030128,3.02327702 8.7375724,2.76108195 C8.72107171,2.62542071 8.72473853,2.62083756 8.79807492,2.59333866 C8.85216051,2.57500605 8.9080795,2.56583975 8.96583191,2.56400649 C9.05200217,2.5612566 9.05200217,2.5612566 9.05200217,2.68866818 L9.05291887,2.68866818 Z M16.5579816,3.05807007 L16.6496521,3.0956519 L16.6679862,3.45772075 C16.6771532,3.6547962 16.6817367,4.08286242 16.6771532,4.40459955 L16.6679862,4.99399264 L16.5552315,4.93716158 L16.4406434,4.88216378 L16.432393,3.98386638 C16.4268928,3.6731288 16.4278095,3.36239123 16.4351431,3.05165366 C16.4461436,3.01132194 16.4461436,3.01132194 16.5579816,3.05715344 L16.5579816,3.05807007 Z M11.6169424,3.41280588 C11.6343598,3.42930522 11.6719447,4.74191939 11.6746948,5.40647615 L11.6765282,5.80704346 L11.5491062,5.78871086 C11.503271,5.78412771 11.4583524,5.7777113 11.4143506,5.768545 C11.4051835,5.76304522 11.3245135,3.75837539 11.3245135,3.56404983 L11.3245135,3.36422449 L11.4638527,3.38072383 C11.516255,3.38543419 11.5679351,3.39619999 11.6178591,3.41280588 L11.6169424,3.41280588 Z M17.8477853,3.60529818 C17.87987,3.64196338 17.8853702,4.235023 17.8936206,7.50280897 C17.9027876,11.253659 17.9027876,11.352655 17.8532856,11.352655 C17.8192774,11.3495199 17.7868554,11.3368064 17.7597817,11.3159898 C17.7194466,11.2866576 17.7139464,10.9585041 17.6992791,7.75488222 C17.6944512,6.44803195 17.6837562,5.14120994 17.6671945,3.83445568 L17.6506938,3.44488793 L17.7304471,3.50171899 C17.7762823,3.53380104 17.8267011,3.58054917 17.8496187,3.60438155 L17.8477853,3.60529818 L17.8477853,3.60529818 Z M15.4221843,4.15985934 C15.4359348,4.1708589 15.4496854,4.32485274 15.4515188,4.5008457 C15.4652694,5.09848846 15.4680195,8.76317523 15.4542689,8.77509142 C15.4487687,8.7805912 15.3992666,8.76592512 15.345181,8.74575926 L15.248927,8.70542754 L15.248927,4.10394491 L15.3240968,4.12044425 C15.3644319,4.13144381 15.4093504,4.14794315 15.4221843,4.16077597 L15.4221843,4.15985934 Z M7.95470645,4.31110329 C7.96204009,4.38443369 7.97670736,4.54942709 7.9831243,4.6841717 L8.02620943,5.35514487 C8.0592108,5.83179247 8.05371057,5.86112463 7.89787074,5.86112463 C7.81720072,5.86112463 7.80620026,5.85195833 7.79703321,5.77221152 C7.76953206,5.6127179 7.67511146,4.28177113 7.68886204,4.25977201 C7.75644724,4.22135576 7.83085957,4.1964499 7.9079545,4.18644161 C7.92445519,4.18369172 7.94462269,4.24143941 7.95378974,4.31110329 L7.95470645,4.31110329 Z M3.4784366,5.00040905 L3.61135881,6.33410571 C3.65719405,6.78050453 3.69569565,7.15907272 3.69569565,7.17557206 C3.69569565,7.20765411 3.48760365,7.3112333 3.46651944,7.28923418 C3.35972994,6.45192391 3.26499397,5.61312065 3.18234093,4.77308481 C3.18234093,4.70892071 3.38951623,4.43393171 3.41701738,4.46509713 C3.44604512,4.64250612 3.46715028,4.82112067 3.48027001,5.00040905 L3.4784366,5.00040905 L3.4784366,5.00040905 Z M14.087462,5.28456435 L14.1653819,5.33039586 L14.168132,5.9152058 C14.1708821,6.23419304 14.1772991,6.59167874 14.1772991,6.70809076 C14.1818826,6.95191434 14.152548,6.99224606 14.0058752,6.94091478 L13.9233718,6.91158262 L13.9233718,6.6787586 C13.9233718,6.54859713 13.9142048,6.17277883 13.904121,5.84004214 L13.8876203,5.23964948 L13.9499562,5.23964948 C13.9983313,5.24586093 14.0450348,5.2614275 14.087462,5.28548098 L14.087462,5.28456435 Z M4.6664861,6.33410571 L4.84524355,8.28194448 L4.93691404,9.28107118 L4.83149298,9.38648363 L4.72882203,9.49189609 L4.70865453,9.27832129 C4.69857077,9.15915939 4.64448519,8.60918139 4.58673278,8.05003709 C4.52989708,7.4945593 4.44922705,6.68425838 4.40889204,6.25344227 L4.33280553,5.47430677 L4.43730989,5.37897725 C4.53264719,5.29006413 4.54273095,5.28731424 4.56198175,5.33589564 C4.57389891,5.36339454 4.61973416,5.81254324 4.66465269,6.33502234 L4.6664861,6.33502234 L4.6664861,6.33410571 Z M2.63873495,6.66225925 C2.69832076,7.19390466 2.85507729,8.61284791 2.99166632,9.80905007 C3.12642193,11.0070855 3.25384391,12.1629559 3.27859494,12.3792806 C3.29967915,12.5956053 3.33726405,12.9228422 3.35926497,13.1098347 C3.39593316,13.4260721 3.39593316,13.4489878 3.35376474,13.4801532 C3.2895954,13.5287346 3.26209425,13.5232349 3.26209425,13.4664038 C3.26209425,13.4416548 3.23825993,13.2372463 3.20709196,13.0145052 L2.89724572,10.6065182 L2.73498896,9.3489018 C2.61920942,8.47234511 2.50614861,7.59543153 2.39580816,6.71817369 C2.34905621,6.35152168 2.31880495,6.02153488 2.32705529,5.98761957 C2.34538939,5.91428917 2.50581274,5.66038266 2.52231343,5.67596537 C2.52781366,5.68513167 2.58189925,6.12511407 2.64148506,6.66134262 L2.63965165,6.66225925 L2.63873495,6.66225925 Z M1.81095046,7.82821262 L1.97870745,9.14815983 C2.03095962,9.54689389 2.09512896,10.0473739 2.12538022,10.2572821 L2.17579899,10.6340171 L2.11896329,10.6825985 C2.08779532,10.7100974 2.05479395,10.7192637 2.04287679,10.7100974 C2.01769585,10.6327554 2.00139593,10.5528001 1.99429143,10.4717736 C1.97870745,10.3526117 1.87878662,9.65780612 1.77061544,8.93183515 L1.57810742,7.60638816 L1.63952665,7.42306216 C1.65564122,7.35880244 1.68128773,7.29731765 1.71561315,7.24065279 C1.72661361,7.24065279 1.76694862,7.50647549 1.81003375,7.82729599 L1.81186716,7.82821262 L1.81095046,7.82821262 Z M16.6643193,7.47347681 C16.7019042,7.51014201 16.7074045,7.67880193 16.7074045,8.92175222 L16.7074045,10.3241961 L16.631318,10.3241961 C16.4663111,10.3241961 16.4690612,10.3636112 16.4580608,8.83008922 L16.4507271,7.4303952 L16.5359807,7.4303952 C16.5818159,7.4303952 16.6423184,7.4487278 16.6643193,7.47347681 L16.6643193,7.47347681 Z M10.7424059,7.95745745 C11.3547648,8.04912046 11.8864536,8.21961364 12.4153923,8.48910286 C12.7564065,8.66601245 12.91958,8.78792424 13.2972624,9.14907646 C13.8592025,9.68622165 14.2057169,10.1573695 14.5302304,10.8228429 C15.0032501,11.7917208 15.1875078,12.6487698 15.4212676,14.9476779 C15.5257719,15.9788866 15.6641943,17.8488119 15.6935289,18.6141979 C15.7026959,18.8360224 15.72103,19.2008411 15.736614,19.4254155 C15.7659486,19.9020631 15.8026168,19.837899 15.3818492,20.0395576 C14.8006584,20.320963 14.2405517,20.5162052 13.5026043,20.6967813 C12.5987333,20.9186057 12.0147923,20.9901029 11.1219217,20.9919362 L10.4728947,20.994686 L10.4783949,20.6830318 C10.4783949,20.5134553 10.4948956,20.1147212 10.5095629,19.8049003 C10.5920663,18.2979606 10.5755656,16.3950367 10.4701446,15.3409122 C10.4096421,14.7359364 10.2941373,13.9989658 10.2290512,13.8376389 C10.2153006,13.8009737 10.2776366,13.7716416 10.5453144,13.6799786 C11.0348348,13.5094854 11.4601858,13.294994 11.5234385,13.1904982 C11.63986,12.9906728 11.431768,12.7046843 11.1659236,12.7046843 C11.1200883,12.7046843 10.9825826,12.752349 10.8560773,12.8091801 C10.2492187,13.0878356 9.03458477,13.4141559 8.33330555,13.4874863 C7.74674657,13.5355155 7.15649977,13.5108854 6.57598233,13.4141559 C6.29180383,13.3637412 5.78303263,13.1712489 5.35768157,12.9521744 C4.86816117,12.6982678 4.56748198,12.3600314 4.4776449,11.9594641 C4.42997625,11.7431394 4.44372682,11.31049 4.50514605,11.0666664 C4.59681653,10.7495125 4.74348931,10.4506911 4.93599733,10.1821185 C5.70602942,9.16924232 7.29834576,8.29019415 8.93008042,7.98220646 C9.52925879,7.8835459 10.1398386,7.87520364 10.7414892,7.95745745 L10.7433226,7.95745745 L10.7424059,7.95745745 Z M19.0890037,8.04178742 C19.1870911,8.08211914 19.1980916,8.0931187 19.1980916,8.1847817 C19.2035918,8.92358548 19.1870911,10.6092681 19.1733406,10.6798486 C19.1705904,10.7045976 19.0303346,10.7073475 18.9716655,10.6853484 C18.9322472,10.6715989 18.9267469,10.5258547 18.9267469,9.33240246 C18.9267469,8.47993656 18.9377474,7.99778917 18.9542481,7.99778917 C18.9689154,7.99778917 19.0312513,8.01612177 19.0908371,8.04087079 L19.0890037,8.04178742 L19.0890037,8.04178742 Z M20.271553,9.52672803 L20.367807,9.56522649 L20.3494729,11.8054702 C20.327472,14.6598561 20.3247219,14.7432694 20.2211342,14.9898429 C20.0533772,15.3931601 20.0616276,15.4738235 20.079045,13.7047276 C20.0845452,12.8201796 20.0973791,11.9246321 20.103796,11.7156405 C20.1092962,11.5084821 20.1147964,10.9209223 20.1175466,10.4094427 C20.1175466,9.79255073 20.1267136,9.48364642 20.1450477,9.48364642 C20.1606317,9.48364642 20.2183841,9.50381228 20.2733864,9.52489477 L20.271553,9.52672803 L20.271553,9.52672803 Z M4.00004167,10.1986178 C4.01654236,10.418609 4.01104213,10.4396915 3.93220551,10.6129346 L3.84695196,10.7962606 L3.81486729,10.5267714 C3.76353181,10.094122 3.76353181,10.0748728 3.86620276,10.009792 C3.912038,9.97770999 3.96062336,9.95479424 3.9688737,9.96121065 C3.97712405,9.96671043 3.99362473,10.0748728 4.00095837,10.1995345 L4.00004167,10.1986178 Z M2.327972,11.8302192 C2.35272303,12.0520437 2.54156423,13.5241515 2.63965165,14.2464559 C2.78540773,15.3647445 2.79549148,15.5233215 2.73132214,15.4564075 C2.67701969,15.178949 2.63146745,14.8998497 2.59473311,14.6195243 C2.17304888,11.7028077 2.17579899,11.7229735 2.20971707,11.7000578 C2.28305346,11.6514764 2.30780449,11.6780587 2.32705529,11.8302192 L2.3288887,11.8302192 L2.327972,11.8302192 Z M4.27688654,13.0676697 C4.29338722,13.136417 4.37130714,13.869721 4.37130714,13.9586341 C4.37130714,14.0347144 4.27413642,14.1052949 4.23013459,14.0612967 C4.21730072,14.0475472 4.18154923,13.8174731 4.15496479,13.552567 L4.08621193,12.9329251 L4.06971124,12.7972639 L4.16504854,12.9054262 C4.20996708,12.953091 4.24755198,13.0080888 4.27505313,13.0676697 L4.27688654,13.0676697 Z M6.45956082,14.0887956 C6.48889537,14.1162945 6.50814617,14.2244568 6.5328972,14.5159452 C6.57323222,15.043924 6.57873245,15.0017591 6.46872786,15.0017591 C6.35413976,15.0017591 6.35688987,15.0109254 6.32022168,14.5342778 C6.28172007,14.0502971 6.28172007,14.0557955 6.35413976,14.0557955 C6.38897454,14.0557955 6.43664319,14.0722962 6.45956082,14.0878789 L6.45956082,14.0887956 L6.45956082,14.0887956 Z M8.60190008,14.1291273 C8.60831701,14.1566262 8.62023418,14.3188697 8.63215134,14.4893629 C8.63948498,14.6598561 8.6633193,15.043924 8.68623693,15.3418288 C8.76140673,16.4344518 8.76415684,16.5728629 8.71740489,16.5728629 C8.66606942,16.5728629 8.66056919,16.5325312 8.60098337,15.7616453 C8.57487378,15.3886357 8.54553813,15.0158589 8.51297971,14.6433567 C8.48822868,14.3500351 8.47264469,14.102545 8.48089504,14.0979619 C8.51022959,14.0658798 8.58814951,14.0887956 8.60281678,14.1300439 L8.60190008,14.1291273 Z M3.51693821,14.6488565 C3.53343889,14.6736055 3.63610984,15.5379876 3.76261511,16.7204403 C3.7992833,17.077926 3.83870161,17.4216623 3.84511855,17.486743 L3.85978582,17.603155 L3.79194966,17.5600734 C3.74462827,17.5332121 3.7171153,17.4814062 3.72136339,17.4271621 C3.72136339,17.2566689 3.60494187,16.1347137 3.5160215,15.4472412 C3.46560273,15.0576735 3.42435101,14.7139372 3.42435101,14.6818552 C3.42435101,14.6250241 3.48852036,14.603025 3.5160215,14.6497731 L3.51693821,14.6488565 Z M19.1302554,15.7799779 L19.1119213,16.9110994 L19.0431685,17.0119287 C18.889162,17.2383363 18.8964957,17.2814179 18.9056627,16.0155518 L18.9102463,14.8550983 L19.0110838,14.7524357 C19.0455633,14.7130782 19.0857306,14.6790932 19.1302554,14.6516064 C19.1375891,14.6516064 19.1375891,15.1612527 19.1302554,15.7808946 L19.1302554,15.7799779 Z M16.6276512,17.5729062 C16.640485,19.1449267 16.6377349,19.2668385 16.5946498,19.3145032 C16.5671486,19.344752 16.544231,19.3640013 16.5359807,19.3557516 C16.5176466,19.3337525 16.4901454,15.9064729 16.5112296,15.8872236 C16.5222301,15.8762241 16.5478978,15.8707243 16.5726489,15.8734742 C16.6074836,15.8826405 16.615734,16.0732995 16.6276512,17.5719896 L16.6276512,17.5729062 L16.6276512,17.5729062 Z M7.79061628,16.4967826 C7.81078378,16.6645259 7.87770324,17.4684104 7.90520438,17.8469786 C7.92170507,18.1008851 7.92170507,18.1091348 7.86211925,18.128384 C7.82911788,18.1393836 7.79061628,18.1375503 7.77961582,18.1228842 C7.76128172,18.1045516 7.7007792,17.5032423 7.62835951,16.5783627 L7.61002542,16.3565382 L7.69252886,16.3565382 C7.77136547,16.3565382 7.775949,16.362038 7.79061628,16.4967826 L7.79061628,16.4967826 Z M5.66386099,17.4436614 C5.6831118,17.461994 5.69594566,17.5298246 5.69594566,17.5976552 C5.69594566,17.6682357 5.72803033,18.0330545 5.76378182,18.4116227 C5.86645277,19.4474146 5.87378641,19.5885756 5.82795116,19.5610767 C5.7591983,19.520745 5.69594566,19.4584141 5.70877953,19.4419148 C5.70780847,19.3411153 5.69861088,19.2405633 5.68127839,19.1412602 C5.6594664,18.9522281 5.64173931,18.762747 5.6281095,18.5729496 C5.61304579,18.3605736 5.59409739,18.1484911 5.5712738,17.9368083 C5.51993833,17.4638273 5.52268845,17.4088295 5.58319097,17.4088295 C5.61069211,17.4088295 5.64461019,17.4225789 5.66386099,17.4409115 L5.66386099,17.4436614 L5.66386099,17.4436614 Z M6.94358098,19.2640886 C6.95274803,19.3236695 6.96833201,19.545494 6.97841577,19.7563189 C6.99674986,20.162386 6.99033293,20.1917182 6.87757823,20.1083048 C6.84641027,20.0835558 6.82440935,19.9799766 6.79324139,19.6729056 C6.73548898,19.1155945 6.73273886,19.1375936 6.83907663,19.1476766 C6.91699654,19.1568429 6.9270803,19.1660092 6.94358098,19.2640886 L6.94358098,19.2640886 Z M5.97737406,9.25265565 C5.69594566,9.37456744 5.67394475,9.75680216 5.93978916,9.89154677 C6.13229718,9.98870955 6.32572191,9.94287805 6.42564274,9.77513476 C6.51184887,9.64139638 6.49982787,9.46689308 6.39609727,9.34623672 C6.29236666,9.22558036 6.12163017,9.18750557 5.97645735,9.25265565 L5.97737406,9.25265565 Z M7.81078378,9.51206195 C7.69034138,9.58836915 7.61734915,9.72101749 7.61734915,9.86358955 C7.61734915,10.0061616 7.69034138,10.13881 7.81078378,10.2151172 C8.06746114,10.369111 8.40114171,10.1665358 8.40114171,9.85763146 C8.40114171,9.55972671 8.0592108,9.35990136 7.81170049,9.51114532 L7.80986708,9.51206195 L7.81078378,9.51206195 Z"></path>
        </g>
    </g>
</svg>