<?xml version="1.0" encoding="UTF-8"?>
<svg width="24px" height="24px" viewBox="0 0 24 24" version="1.1" xmlns="http://www.w3.org/2000/svg" xmlns:xlink="http://www.w3.org/1999/xlink">
    <title>docker</title>
    <g id="docker" stroke="none" stroke-width="1" fill="none" fill-rule="evenodd">
        <g transform="translate(0, 3)" fill="#2496ED" fill-rule="nonzero" id="Shape">
            <path d="M13.983017,7.689 L16.102017,7.689 C16.2043527,7.689 16.2874668,7.60633422 16.288017,7.504 L16.288017,5.617 C16.288017,5.51427504 16.204742,5.431 16.102017,5.431 L13.983017,5.431 C13.933952,5.431 13.8868965,5.45049102 13.8522023,5.48518525 C13.817508,5.51987948 13.798017,5.56693495 13.798017,5.616 L13.798017,7.504 C13.798017,7.606 13.881017,7.689 13.983017,7.689 Z M11.029017,2.259 L13.147017,2.259 C13.249742,2.259 13.333017,2.17572496 13.333017,2.073 L13.333017,0.185 C13.3324668,0.082665776 13.2493527,0 13.147017,0 L11.029017,0 C10.9268443,0 10.844017,0.0828273213 10.844017,0.185 L10.844017,2.073 C10.844017,2.175 10.926017,2.258 11.029017,2.258 L11.029017,2.259 L11.029017,2.259 Z M11.029017,4.974 L13.147017,4.974 C13.2495147,4.97345333 13.3324704,4.89049767 13.333017,4.788 L13.333017,2.901 C13.3324668,2.79866578 13.2493527,2.716 13.147017,2.716 L11.029017,2.716 C10.9268443,2.716 10.844017,2.79882732 10.844017,2.901 L10.844017,4.788 C10.844017,4.89 10.926017,4.973 11.029017,4.974 L11.029017,4.974 Z M8.09901703,4.974 L10.219017,4.974 C10.3209601,4.97290377 10.403017,4.88994896 10.403017,4.788 L10.403017,2.901 C10.403017,2.79882732 10.3201897,2.716 10.218017,2.716 L8.10001703,2.716 C7.99784435,2.716 7.91501703,2.79882732 7.91501703,2.901 L7.91501703,4.788 C7.91501703,4.89 7.99801703,4.973 8.10001703,4.974 L8.09901703,4.974 L8.09901703,4.974 Z M5.13601703,4.974 L7.25501703,4.974 C7.35735125,4.97344981 7.44001703,4.8903357 7.44001703,4.788 L7.44001703,2.901 C7.44001703,2.79882732 7.3571897,2.716 7.25501703,2.716 L5.13601703,2.716 C5.03368132,2.716 4.95056722,2.79866578 4.95001703,2.901 L4.95001703,4.788 C4.95001703,4.89 5.03401703,4.973 5.13601703,4.974 Z M11.029017,7.689 L13.147017,7.689 C13.2493527,7.689 13.3324668,7.60633422 13.333017,7.504 L13.333017,5.617 C13.333017,5.51427504 13.249742,5.431 13.147017,5.431 L11.029017,5.431 C10.979952,5.431 10.9328965,5.45049102 10.8982023,5.48518525 C10.863508,5.51987948 10.844017,5.56693495 10.844017,5.616 L10.844017,7.504 C10.844017,7.606 10.926017,7.689 11.029017,7.689 L11.029017,7.689 Z M8.09901703,7.689 L10.219017,7.689 C10.320799,7.68844982 10.4030197,7.60578343 10.4030197,7.504 L10.4030197,5.617 C10.403283,5.56793473 10.3840465,5.52077349 10.3495397,5.48589156 C10.3150328,5.45100964 10.2680823,5.4312645 10.219017,5.431 L8.09901703,5.431 C7.99723509,5.43155018 7.91501703,5.51421657 7.91501703,5.616 L7.91501703,7.504 C7.91501703,7.606 7.99801703,7.689 8.10001703,7.689 L8.09901703,7.689 L8.09901703,7.689 Z M5.13601703,7.689 L7.25501703,7.689 C7.30408208,7.689 7.35113755,7.66950898 7.38583178,7.63481475 C7.42052601,7.60012052 7.44001975,7.55306505 7.44001975,7.504 L7.44001975,5.617 C7.44028296,5.56793473 7.42104653,5.52077349 7.38653968,5.48589156 C7.35203283,5.45100964 7.3050823,5.4312645 7.25601703,5.431 L5.13601703,5.431 C5.03329206,5.431 4.95001703,5.51427504 4.95001703,5.617 L4.95001703,7.504 C4.95001703,7.606 5.03401703,7.689 5.13601703,7.689 Z M2.21601703,7.689 L4.33601703,7.689 C4.43779896,7.68844982 4.52001975,7.60578343 4.52001975,7.504 L4.52001975,5.617 C4.52028296,5.56793473 4.50104653,5.52077349 4.46653968,5.48589156 C4.43203283,5.45100964 4.3850823,5.4312645 4.33601703,5.431 L2.21601703,5.431 C2.11423509,5.43155018 2.03201703,5.51421657 2.03201703,5.616 L2.03201703,7.504 C2.03201703,7.606 2.11401703,7.689 2.21701703,7.689 L2.21601703,7.689 L2.21601703,7.689 Z M23.763017,6.501 C23.698017,6.45 23.091017,5.991 21.809017,5.991 C21.471017,5.992 21.133017,6.021 20.799017,6.078 C20.551017,4.378 19.146017,3.548 19.083017,3.512 L18.739017,3.313 L18.513017,3.64 C18.229017,4.078 18.023017,4.562 17.901017,5.07 C17.671017,6.04 17.811017,6.952 18.304017,7.731 C17.709017,8.063 16.754017,8.144 16.560017,8.151 L0.751017026,8.151 C0.337810188,8.15154691 0.00266729168,8.4857961 0.00101702566,8.899 C-0.0175012883,10.2838349 0.217011578,11.6604119 0.693017026,12.961 C1.23801703,14.389 2.04801703,15.441 3.10301703,16.085 C4.28301703,16.808 6.20301703,17.2220736 8.37801703,17.2220736 C9.36084645,17.225005 10.3417971,17.1359495 11.308017,16.956 C12.6508657,16.7093339 13.9430163,16.2398604 15.131017,15.567 C16.1103286,15.0001425 16.9916736,14.2788579 17.741017,13.431 C18.993017,12.013 19.739017,10.434 20.294017,9.031 L20.515017,9.031 C21.887017,9.031 22.730017,8.482 23.195017,8.022 C23.504017,7.729 23.745017,7.372 23.902017,6.976 L24.000017,6.688 L23.763017,6.501 L23.763017,6.501 Z"></path>
        </g>
    </g>
</svg>