<?xml version="1.0" encoding="UTF-8"?>
<svg width="24px" height="24px" viewBox="0 0 24 24" version="1.1" xmlns="http://www.w3.org/2000/svg" xmlns:xlink="http://www.w3.org/1999/xlink">
    <title>eslint</title>
    <g id="eslint" stroke="none" stroke-width="1" fill="none" fill-rule="evenodd">
        <g transform="translate(0, 1.5)" fill="#4B32C3" fill-rule="nonzero" id="Shape">
            <path d="M7.25602947,7.673 L11.8149728,5.041 C11.928886,4.9754687 12.0690551,4.9754687 12.1829682,5.041 L16.7419116,7.673 C16.8560219,7.7391205 16.9261686,7.86111615 16.92591,7.993 L16.92591,13.256 C16.9256071,13.3874718 16.8555627,13.5089089 16.7419116,13.575 L12.1829682,16.207 C12.0690551,16.2725313 11.928886,16.2725313 11.8149728,16.207 L7.25602947,13.575 C7.14191912,13.5088795 7.07177249,13.3868838 7.07203104,13.255 L7.07203104,7.993 C7.07203104,7.86117098 7.14207003,7.7392708 7.25602947,7.673 M23.8508232,10.071 L18.4048909,0.596 C18.2068934,0.253 17.8408979,0 17.4449028,0 L6.55403819,0 C6.15804311,0 5.79204766,0.253 5.59405012,0.596 L0.148117804,10.05 C-0.0493726013,10.3961448 -0.0493726013,10.8208552 0.148117804,11.167 L5.59505011,20.565 C5.79204766,20.907 6.15804311,21.082 6.55403819,21.082 L17.4469028,21.082 C17.8418979,21.082 18.2068934,20.912 18.4058909,20.57 L23.8518232,11.157 C24.0493923,10.8219575 24.0493923,10.4060425 23.8518232,10.071 M19.3418793,14.627 C19.3380891,14.7677131 19.2606162,14.8960766 19.1378818,14.965 L12.198968,18.967 C12.0775208,19.0364111 11.9284201,19.0364111 11.8069729,18.967 L4.86405919,14.965 C4.74093936,14.8963306 4.66305798,14.7679198 4.65906174,14.627 L4.65906174,6.621 C4.65906174,6.481 4.74206071,6.352 4.86305921,6.283 L11.798973,2.281 C11.9189715,2.211 12.0709696,2.211 12.1909681,2.281 L19.1338818,6.284 C19.2573873,6.35241442 19.3356776,6.48087294 19.3398793,6.622 L19.3418793,14.627 Z"></path>
        </g>
    </g>
</svg>