<?xml version="1.0" encoding="UTF-8"?>
<svg width="24px" height="24px" viewBox="0 0 24 24" version="1.1" xmlns="http://www.w3.org/2000/svg" xmlns:xlink="http://www.w3.org/1999/xlink">
    <title>file-d</title>
    <g id="file-d" stroke="none" stroke-width="1" fill="none" fill-rule="evenodd">
        <g id="file" transform="translate(2.25, 4)" fill="#FFFFFF" fill-rule="nonzero">
            <path d="M0,15.2 C0,14.7581722 0.373096042,14.4 0.833333333,14.4 L12.5,14.4 C12.9602373,14.4 13.3333333,14.7581722 13.3333333,15.2 C13.3333333,15.6418278 12.9602373,16 12.5,16 L0.833333333,16 C0.373096042,16 0,15.6418278 0,15.2 M0,10.4 C0,9.9581722 0.373096042,9.6 0.833333333,9.6 L19.1666667,9.6 C19.626904,9.6 20,9.9581722 20,10.4 C20,10.8418278 19.626904,11.2 19.1666667,11.2 L0.833333333,11.2 C0.373096042,11.2 0,10.8418278 0,10.4 M0,5.6 C0,5.1581722 0.373096042,4.8 0.833333333,4.8 L12.5,4.8 C12.9602373,4.8 13.3333333,5.1581722 13.3333333,5.6 C13.3333333,6.0418278 12.9602373,6.4 12.5,6.4 L0.833333333,6.4 C0.373096042,6.4 0,6.0418278 0,5.6 M0,0.8 C0,0.3581722 0.373096042,0 0.833333333,0 L19.1666667,0 C19.626904,0 20,0.3581722 20,0.8 C20,1.2418278 19.626904,1.6 19.1666667,1.6 L0.833333333,1.6 C0.373096042,1.6 0,1.2418278 0,0.8" id="Shape"></path>
        </g>
    </g>
</svg>