<?xml version="1.0" encoding="UTF-8"?>
<svg width="24px" height="24px" viewBox="0 0 24 24" version="1.1" xmlns="http://www.w3.org/2000/svg" xmlns:xlink="http://www.w3.org/1999/xlink">
    <title>folder-d</title>
    <g id="folder-d" stroke="none" stroke-width="1" fill="none" fill-rule="evenodd">
        <g id="folder" transform="translate(1.5, 3)" fill="#FFFFFF" fill-rule="nonzero">
            <path d="M0.470655425,3.97384615 L0.416879246,2.76923077 C0.416879246,1.23982685 1.62070002,0 3.10568819,0 L8.04234142,0 C8.75539961,0 9.43919721,0.292017116 9.94332934,0.811384615 L11.0564962,1.95784615 C11.5606284,2.47721365 12.244426,2.76907393 12.9574842,2.76923077 L18.3109028,2.76923077 C19.0663835,2.7691502 19.7870435,3.09640759 20.296532,3.67092063 C20.8060204,4.24543367 21.0573275,5.01419278 20.9889565,5.78907692 L20.1325708,15.4813846 C20.0067498,16.9073811 18.8461503,17.9994323 17.4558615,18 L3.54396405,18 C2.15367526,17.9994323 0.993075781,16.9073811 0.867254745,15.4813846 L0.0108690953,5.78907692 C-0.0452771584,5.14779597 0.117306384,4.50640776 0.470655425,3.97523077 L0.470655425,3.97384615 Z M2.68892281,4.15384615 C2.31131054,4.15384615 1.95109773,4.31735843 1.69637621,4.60445764 C1.4416547,4.89155684 1.31591085,5.27574861 1.34989595,5.66307692 L2.2062816,15.3553846 C2.2688423,16.0683926 2.84884204,16.6147104 3.54396405,16.6153846 L17.4558615,16.6153846 C18.1509836,16.6147104 18.7309833,16.0683926 18.793544,15.3553846 L19.6499296,5.66307692 C19.6839147,5.27574861 19.5581709,4.89155684 19.3034494,4.60445764 C19.0487279,4.31735843 18.6885151,4.15384615 18.3109028,4.15384615 L2.68892281,4.15384615 Z M8.99417979,1.79030769 C8.7417844,1.53028446 8.39933635,1.38432634 8.04234142,1.38461496 L3.10568819,1.38461496 C2.37305622,1.38447918 1.77520372,1.9885144 1.76128372,2.74292308 L1.76935015,2.93538462 C2.05884524,2.82553846 2.36536946,2.77015385 2.68892281,2.76923077 L9.94332934,2.76923077 L8.99417979,1.79030769 Z" id="Shape"></path>
        </g>
    </g>
</svg>