<?xml version="1.0" encoding="UTF-8"?>
<svg width="24px" height="24px" viewBox="0 0 24 24" version="1.1" xmlns="http://www.w3.org/2000/svg" xmlns:xlink="http://www.w3.org/1999/xlink">
    <title>github-d</title>
    <g id="github-d" stroke="none" stroke-width="1" fill="none" fill-rule="evenodd">
        <g id="github" transform="translate(1, 1)" fill="#FFFFFF" fill-rule="nonzero">
            <path d="M11,0 C4.9225,0 0,5.05030079 0,11.2792871 C0,16.263792 3.1515,20.4907048 7.52125,21.9805107 C8.07125,22.086724 8.27291667,21.738006 8.27291667,21.438165 C8.27291667,21.1702819 8.26375,20.4606267 8.25916667,19.5206862 C5.19933333,20.2012031 4.554,18.0073818 4.554,18.0073818 C4.0535,16.7055641 3.33025,16.3577861 3.33025,16.3577861 C2.33383333,15.6584703 3.40725,15.6725694 3.40725,15.6725694 C4.51183333,15.7515244 5.09208333,16.834336 5.09208333,16.834336 C6.07291667,18.5591269 7.667,18.0609584 8.29583333,17.7723967 C8.39483333,17.0430028 8.67808333,16.5457742 8.9925,16.263792 C6.54958333,15.9818098 3.982,15.0117912 3.982,10.6899443 C3.982,9.45862215 4.40825,8.45288572 5.11408333,7.66333562 C4.99033333,7.37853363 4.61908333,6.23180611 5.21033333,4.67808431 C5.21033333,4.67808431 6.13158333,4.37542344 8.23533333,5.83421124 C9.11533333,5.5832471 10.0503333,5.45917494 10.9853333,5.4535353 C11.9203333,5.45917494 12.8553333,5.5832471 13.7353333,5.83421124 C15.8253333,4.37542344 16.7465833,4.67808431 16.7465833,4.67808431 C17.3378333,6.23180611 16.9665833,7.37853363 16.8565833,7.66333562 C17.5578333,8.45288572 17.9840833,9.45862215 17.9840833,10.6899443 C17.9840833,15.0230704 15.4128333,15.9771101 12.9653333,16.2543926 C13.3503333,16.5927712 13.7078333,17.2845675 13.7078333,18.3410607 C13.7078333,19.8506053 13.6940833,21.0631287 13.6940833,21.4297055 C13.6940833,21.7257868 13.8865833,22.0782645 14.4503333,21.9654716 C18.85125,20.4860051 22,16.2562725 22,11.2792871 C22,5.05030079 17.07475,0 11,0" id="Path"></path>
        </g>
    </g>
</svg>