<?xml version="1.0" encoding="UTF-8"?>
<svg width="24px" height="24px" viewBox="0 0 24 24" version="1.1" xmlns="http://www.w3.org/2000/svg" xmlns:xlink="http://www.w3.org/1999/xlink">
    <title>graphql</title>
    <g id="graphql" stroke="none" stroke-width="1" fill="none" fill-rule="evenodd">
        <g transform="translate(2, 1)" fill="#E10098" fill-rule="nonzero" id="Shape">
            <path d="M11.9207595,2.52172477 L16.5411967,5.13419113 C16.9766351,4.68522367 17.6027044,4.46339678 18.2307661,4.53554826 C18.8588278,4.60769973 19.4154441,4.96539307 19.7329029,5.50085308 C20.046532,6.03728213 20.0844042,6.686841 19.8351616,7.25472803 C19.585919,7.82261506 19.078548,8.24278611 18.4652085,8.38923255 L18.4652085,13.6132486 C19.0805418,13.7563534 19.5901996,14.1764975 19.8390239,14.7457742 C20.0878482,15.3150509 20.0463955,15.9660972 19.7272854,16.5007114 C19.4048586,17.0456723 18.8351024,17.4062353 18.1951803,17.4702847 C17.5552582,17.5343341 16.9227694,17.2941031 16.4943837,16.8242906 L11.9020343,19.4202572 C12.1517129,20.156591 11.9346665,20.9678172 11.3483364,21.4897429 C10.7620063,22.0116687 9.9165713,22.1462174 9.19158205,21.8329847 C8.46659281,21.519752 7.99828406,20.8175982 7.99689891,20.0417492 C7.99689891,19.8538349 8.02405041,19.6659207 8.07928968,19.4835064 L3.45791626,16.87379 C2.86788505,17.4773631 1.95213261,17.6488165 1.17627049,17.3009754 C0.400408367,16.9531342 -0.0652898809,16.1623369 0.0159586071,15.330662 C0.0972070952,14.4989871 0.707571227,13.8089569 1.53671321,13.6114153 L1.53764947,8.38739924 C0.922922305,8.2432543 0.413653634,7.82366756 0.163563096,7.25528872 C-0.0865274417,6.68690988 -0.0481370804,6.03633511 0.267146284,5.49993642 C0.583613202,4.96418488 1.13945473,4.60577775 1.76716607,4.53272227 C2.39487741,4.45966679 3.02104833,4.68050673 3.45698,5.1286912 L8.08022594,2.51622484 C7.90089313,1.92324547 8.01795368,1.28218128 8.39603057,0.786769012 C8.77410746,0.291356742 9.36883975,-0.000275335892 10.0004927,3.60697584e-06 C10.6336185,-0.00118426185 11.2299605,0.291084321 11.6083886,0.78804061 C11.9868167,1.2849969 12.1026699,1.92799176 11.9207595,2.52172477 Z M11.4385862,3.32563108 C11.4214341,3.34425837 11.4033089,3.36200409 11.3842832,3.37879707 L17.4334513,13.636165 C17.457794,13.6279151 17.4858818,13.6214985 17.5102245,13.6150819 L17.5102245,8.38373263 C16.9953396,8.25875108 16.5523119,7.93851694 16.2787143,7.49355907 C16.0051168,7.04860121 15.92339,6.51541486 16.0515333,6.01142984 L16.0693222,5.94543069 L11.4385862,3.32563108 L11.4385862,3.32563108 Z M8.61576597,3.37971372 L8.55959044,3.32471443 L3.92885444,5.9390141 C4.07602358,6.43812576 4.0145684,6.97403957 3.7580183,7.42877373 C3.50146821,7.88350788 3.07085567,8.21978241 2.56098033,8.36356622 L2.48982467,8.38281597 L2.48982467,13.6150819 L2.56847041,13.636165 L8.61763849,3.37879707 L8.61576597,3.37971372 Z M10.5594392,3.84445774 C10.1942983,3.94712308 9.80762342,3.94712308 9.44341875,3.84445774 L3.39518692,14.100909 C3.67044701,14.3603223 3.86518884,14.6921514 3.9569422,15.0551467 L16.0449795,15.0551467 C16.1357966,14.6903181 16.332411,14.3575724 16.6095436,14.098159 L10.5594392,3.84445774 Z M11.4825904,18.7190162 L16.0824299,16.1175497 C16.0687116,16.074669 16.0568419,16.0312423 16.046852,15.9873847 L3.95413342,15.9873847 L3.93447199,16.0634671 L8.55865418,18.6777668 C8.93553752,18.2937341 9.45653083,18.0774451 10.0004927,18.0791911 C10.587527,18.0791911 11.1146407,18.3257713 11.4825904,18.7190162 L11.4825904,18.7190162 Z"></path>
        </g>
    </g>
</svg>