<?xml version="1.0" encoding="UTF-8"?>
<svg width="24px" height="24px" viewBox="0 0 24 24" version="1.1" xmlns="http://www.w3.org/2000/svg" xmlns:xlink="http://www.w3.org/1999/xlink">
    <title>image</title>
    <g id="image" stroke="none" stroke-width="1" fill="none" fill-rule="evenodd">
        <g transform="translate(1.5, 3)" fill="#009FFF" fill-rule="nonzero">
            <path d="M8,6 C8,7.1045695 7.1045695,8 6,8 C4.8954305,8 4,7.1045695 4,6 C4,4.8954305 4.8954305,4 6,4 C7.1045695,4 8,4.8954305 8,6" id="Path"></path>
            <path d="M2.625,0 C1.17525253,0 0,1.15126779 0,2.57142857 L0,15.4285714 C0,16.8487322 1.17525253,18 2.625,18 L18.375,18 C19.8247475,18 21,16.8487322 21,15.4285714 L21,2.57142857 C21,1.15126779 19.8247475,0 18.375,0 L2.625,0 Z M18.375,1.28571429 C19.0998737,1.28571429 19.6875,1.86134818 19.6875,2.57142857 L19.6875,10.9285714 L14.7301875,8.42528571 C14.4777733,8.30142353 14.1727789,8.34957883 13.972875,8.54485714 L9.1035,13.3148571 L5.61225,11.0365714 C5.35236049,10.8670759 5.00654934,10.9004136 4.785375,11.1162857 L1.3125,14.1428571 L1.3125,2.57142857 C1.3125,1.86134818 1.90012627,1.28571429 2.625,1.28571429 L18.375,1.28571429 Z" id="Shape"></path>
        </g>
    </g>
</svg>