<?xml version="1.0" encoding="UTF-8"?>
<svg width="24px" height="24px" viewBox="0 0 24 24" version="1.1" xmlns="http://www.w3.org/2000/svg" xmlns:xlink="http://www.w3.org/1999/xlink">
    <title>javascript</title>
    <g id="javascript" stroke="none" stroke-width="1" fill="none" fill-rule="evenodd">
        <g transform="translate(1, 1)" fill="#000000" fill-rule="nonzero" id="Combined-Shape">
            <path d="M17.5132009,1.81272054e-16 C19.0733587,-1.05324284e-16 19.6391096,0.16244482 20.20948,0.467482232 C20.7798504,0.772519644 21.2274804,1.22014965 21.5325178,1.79052002 C21.8375552,2.36089039 22,2.92664131 22,4.4867991 L22,17.5132009 C22,19.0733587 21.8375552,19.6391096 21.5325178,20.20948 C21.2274804,20.7798504 20.7798504,21.2274804 20.20948,21.5325178 C19.6391096,21.8375552 19.0733587,22 17.5132009,22 L4.4867991,22 C2.92664131,22 2.36089039,21.8375552 1.79052002,21.5325178 C1.22014965,21.2274804 0.772519644,20.7798504 0.467482232,20.20948 C0.16244482,19.6391096 -3.73873021e-16,19.0733587 -5.64937246e-16,17.5132009 L1.20848036e-16,4.4867991 C-7.0216189e-17,2.92664131 0.16244482,2.36089039 0.467482232,1.79052002 C0.772519644,1.22014965 1.22014965,0.772519644 1.79052002,0.467482232 C2.36089039,0.16244482 2.92664131,-3.73873021e-16 4.4867991,-5.64937246e-16 L17.5132009,1.81272054e-16 Z M15.602,9.501 L14.924,9.583 C14.274,9.735 13.656,10.053 13.293,10.478 C12.203,11.627 12.514,13.638 13.839,14.466 C15.145,15.378 17.063,15.585 17.308,16.437 C17.546,17.48 16.483,17.818 15.427,17.698 C14.649,17.548 14.216,17.18 13.747,16.51 C13.38825,16.7033333 13.1789792,16.8161111 12.9928131,16.9161863 L12.7724161,17.034522 C12.5845139,17.1352917 12.3691667,17.2505 12,17.448 C12.21,17.875 12.43,18.068 12.783,18.438 C14.45,20.011 18.62,19.933 19.368,17.554 C19.398,17.472 19.6,16.927 19.438,16.087 C19.269,15.111 18.585,14.291 16.558,13.527 C15.853,13.225 15.068,13.01 14.834,12.514 C14.751,12.224 14.74,12.062 14.793,11.887 C14.943,11.32 15.672,11.143 16.249,11.305 C16.621,11.421 16.973,11.688 17.185,12.113 C18.178,11.515 18.175,11.519 18.869,11.108 C18.615,10.742 18.479,10.573 18.314,10.417 C17.717,9.797 16.903,9.477 15.602,9.501 Z M11.05,9.5 L8.868,9.5 L8.859,14.739 C8.859,15.853 8.921,16.874 8.726,17.187 C8.407,17.803 7.58,17.727 7.203,17.607 C6.819,17.432 6.624,17.183 6.398,16.831 C6.336,16.731 6.29,16.652 6.274,16.646 L4.5,17.655 C4.795,18.217 5.23,18.705 5.786,19.022 C6.618,19.486 7.735,19.628 8.904,19.379 C9.664,19.173 10.321,18.747 10.664,18.098 C11.161,17.248 11.054,16.218 11.05,15.078 C11.061,13.221 11.05,11.364 11.05,9.5 Z"></path>
        </g>
    </g>
</svg>