<?xml version="1.0" encoding="UTF-8"?>
<svg width="24px" height="24px" viewBox="0 0 24 24" version="1.1" xmlns="http://www.w3.org/2000/svg" xmlns:xlink="http://www.w3.org/1999/xlink">
    <title>javascript-2</title>
    <g id="javascript-2" stroke="none" stroke-width="1" fill="none" fill-rule="evenodd">
        <g transform="translate(1.5, 1.5)">
            <path d="M4.4867991,-5.64937246e-16 L16.5132009,1.81272054e-16 C18.0733587,-1.05324284e-16 18.6391096,0.16244482 19.20948,0.467482232 C19.7798504,0.772519644 20.2274804,1.22014965 20.5325178,1.79052002 C20.8375552,2.36089039 21,2.92664131 21,4.4867991 L21,16.5132009 C21,18.0733587 20.8375552,18.6391096 20.5325178,19.20948 C20.2274804,19.7798504 19.7798504,20.2274804 19.20948,20.5325178 C18.6391096,20.8375552 18.0733587,21 16.5132009,21 L4.4867991,21 C2.92664131,21 2.36089039,20.8375552 1.79052002,20.5325178 C1.22014965,20.2274804 0.772519644,19.7798504 0.467482232,19.20948 C0.16244482,18.6391096 -3.73873021e-16,18.0733587 -5.64937246e-16,16.5132009 L1.20848036e-16,4.4867991 C-7.0216189e-17,2.92664131 0.16244482,2.36089039 0.467482232,1.79052002 C0.772519644,1.22014965 1.22014965,0.772519644 1.79052002,0.467482232 C2.36089039,0.16244482 2.92664131,-3.73873021e-16 4.4867991,-5.64937246e-16 Z" id="Rectangle" stroke="#000000"></path>
            <path d="M18.938,15.587 C18.769,14.611 18.085,13.791 16.058,13.027 C15.353,12.725 14.568,12.51 14.334,12.014 C14.251,11.724 14.24,11.562 14.293,11.387 C14.443,10.82 15.172,10.643 15.749,10.805 C16.121,10.921 16.473,11.188 16.685,11.613 C17.678,11.015 17.675,11.019 18.369,10.608 C18.115,10.242 17.979,10.073 17.814,9.917 C17.217,9.297 16.403,8.977 15.102,9.001 L14.424,9.083 C13.774,9.235 13.156,9.553 12.793,9.978 C11.703,11.127 12.014,13.138 13.339,13.966 C14.645,14.878 16.563,15.085 16.808,15.937 C17.046,16.98 15.983,17.318 14.927,17.198 C14.149,17.048 13.716,16.68 13.247,16.01 C12.386,16.474 12.386,16.474 11.5,16.948 C11.71,17.375 11.93,17.568 12.283,17.938 C13.95,19.511 18.12,19.433 18.868,17.054 C18.898,16.972 19.1,16.427 18.938,15.587 L18.938,15.587 Z M10.55,9 L8.368,9 L8.359,14.239 C8.359,15.353 8.421,16.374 8.226,16.687 C7.907,17.303 7.08,17.227 6.703,17.107 C6.319,16.932 6.124,16.683 5.898,16.331 C5.836,16.231 5.79,16.152 5.774,16.146 L4,17.155 C4.295,17.717 4.73,18.205 5.286,18.522 C6.118,18.986 7.235,19.128 8.404,18.879 C9.164,18.673 9.821,18.247 10.164,17.598 C10.661,16.748 10.554,15.718 10.55,14.578 C10.561,12.721 10.55,10.864 10.55,9 L10.55,9 Z" id="Shape" fill="#000000" fill-rule="nonzero"></path>
        </g>
    </g>
</svg>