<?xml version="1.0" encoding="UTF-8"?>
<svg width="24px" height="24px" viewBox="0 0 24 24" version="1.1" xmlns="http://www.w3.org/2000/svg" xmlns:xlink="http://www.w3.org/1999/xlink">
    <title>json-d</title>
    <g id="json-d" stroke="none" stroke-width="1" fill="none" fill-rule="evenodd">
        <g id="json" transform="translate(2, 0)" fill="#FFFFFF" fill-rule="nonzero">
            <path d="M19.0070028,6.74695194 L19.0070028,16.4925492 L17.5488571,16.4925492 L17.5488571,6.74695194 L14.6325657,6.74695194 C13.4245983,6.74695194 12.4453472,5.74004751 12.4453472,4.49796796 L12.4453472,1.49932265 L4.42554592,1.49932265 C3.6202343,1.49932265 2.96740024,2.17059227 2.96740024,2.99864531 L2.96740024,16.4925492 L1.50925455,16.4925492 L1.50925455,2.99864531 C1.50925455,1.34253923 2.81492267,0 4.42554592,0 L12.4453472,0 L19.0070028,6.74695194 Z M4.64572592,22.9246434 C4.54982966,22.7131599 4.49485736,22.484515 4.48387175,22.2514475 L5.59789505,22.2514475 C5.63916321,22.4879372 5.77374978,22.6963321 5.9697222,22.8271874 C6.0717924,22.9001544 6.19330454,22.9571287 6.33425863,22.9981102 C6.47229642,23.0390917 6.62734591,23.0595824 6.7994071,23.0595824 C7.0375709,23.0595824 7.23830895,23.0245982 7.40162127,22.9546298 C7.55028382,22.8973873 7.67949596,22.7968297 7.77344842,22.6652605 C7.85687473,22.5367664 7.89965365,22.3849066 7.89593266,22.230457 C7.90389586,22.0401348 7.82119506,21.8577545 7.67429451,21.7416778 C7.52653575,21.621732 7.30149527,21.5252756 6.99917306,21.4523085 L6.09803903,21.2379054 C5.82012015,21.1780294 5.55427259,21.0694988 5.3120985,20.9170503 C5.09775511,20.7821743 4.92094938,20.5926286 4.79883122,20.3667989 C4.67669703,20.1242295 4.61506819,19.8542664 4.6194793,19.5811538 C4.6194793,19.2153191 4.71182853,18.8959634 4.89652698,18.6230867 C5.08316963,18.3512095 5.33980327,18.1403048 5.6664279,17.9903725 C5.99402463,17.8404402 6.37168437,17.7659739 6.7994071,17.7669635 C7.24268339,17.7669635 7.62131522,17.8429391 7.93530259,17.9948705 C8.25220625,18.1478014 8.49523053,18.3527088 8.66437543,18.6095928 C8.83935292,18.8644776 8.93656263,19.1473498 8.95600457,19.4582094 L7.86239531,19.4582094 C7.83743229,19.3159277 7.77716086,19.1826848 7.68741782,19.0713841 C7.59261688,18.9506249 7.46904564,18.857137 7.32871398,18.8000067 C7.15786875,18.7273228 6.9740149,18.6925793 6.78920008,18.6980528 C6.47424061,18.6980528 6.22538375,18.7740185 6.04262949,18.9259498 C5.86838176,19.0624964 5.76812512,19.2764733 5.77287254,19.5016897 C5.77287254,19.6816085 5.84286353,19.8315407 5.98284552,19.9514865 C6.1578137,20.0828605 6.35905413,20.1724931 6.57193637,20.213868 L7.47744484,20.4282711 C7.79434851,20.5032373 8.06945199,20.6086896 8.3027553,20.7446282 C8.52774489,20.8710088 8.71635189,21.0561503 8.84955994,21.2813857 C8.98079305,21.5032855 9.0464096,21.783159 9.0464096,22.1210064 C9.0464096,22.4908393 8.95503247,22.8186912 8.77227821,23.1045621 C8.57919366,23.3988914 8.30573724,23.6279033 7.98633769,23.7627647 C7.6451316,23.9206934 7.22810193,23.9996577 6.73524869,23.9996577 C6.36487969,23.9996577 6.04165739,23.954678 5.76558181,23.8647187 C5.51159309,23.7865107 5.27485299,23.6581776 5.06858817,23.4868894 C4.88956778,23.3333029 4.74526314,23.1414326 4.64572592,22.9246434 M0.119641711,22.8751657 C0.0385550201,22.6517526 -0.00197210438,22.4149361 7.37644781e-05,22.1764814 L1.11409707,22.1764814 C1.11851676,22.3182814 1.15549075,22.4569961 1.22199985,22.5812985 C1.35907493,22.8209573 1.61388771,22.9629266 1.88399799,22.9501318 C2.16104567,22.9501318 2.36615817,22.8681689 2.49933547,22.7042429 C2.63251278,22.5393174 2.69910143,22.3064227 2.69910143,22.0055586 L2.69910143,17.8899179 L3.85249467,17.8899179 L3.85249467,21.9755721 C3.85249467,22.6352741 3.67897533,23.1375472 3.33193666,23.4823914 C2.98684218,23.8272356 2.50808435,23.9996577 1.89566316,23.9996577 C1.61357092,24.0045581 1.33295336,23.9568064 1.06743641,23.8587214 C0.844231798,23.7707923 0.641888186,23.6348136 0.473971113,23.4599016 C0.317144069,23.2928119 0.196400172,23.093553 0.119641711,22.8751657 M13.3756441,20.4987393 L13.3756441,21.2813857 C13.3756441,21.6652123 13.3187765,21.9855676 13.2050411,22.2424516 C13.1083267,22.4796918 12.9448114,22.6817646 12.7355182,22.8226894 C12.5282785,22.9491702 12.2911688,23.0145308 12.0501897,23.0116041 C11.8092106,23.0145308 11.5721009,22.9491702 11.3648612,22.8226894 C11.1572407,22.6806396 10.9949432,22.4788183 10.8982546,22.2424516 C10.7758033,21.9381444 10.7176508,21.6105517 10.7276516,21.2813857 L10.7276516,20.4987393 C10.7276516,20.1129136 10.7845193,19.7925583 10.8982546,19.5376735 C10.9949432,19.3013067 11.1572407,19.0994854 11.3648612,18.9574356 C11.570717,18.8271429 11.8084913,18.7600385 12.0501897,18.764023 C12.3077955,18.764023 12.5362383,18.8284939 12.7355182,18.9574356 C12.9448114,19.0983605 13.1083267,19.3004333 13.2050411,19.5376735 C13.3187765,19.7925583 13.3756441,20.1129136 13.3756441,20.4987393 M14.5465351,21.2768878 L14.5465351,20.5077352 C14.5465351,19.9429904 14.4468952,19.4567101 14.2476153,19.0488943 C14.0599829,18.6520795 13.7601068,18.3228304 13.3873093,18.104321 C13.0179124,17.8844204 12.5726919,17.7744701 12.0516479,17.7744701 C11.532548,17.7744701 11.0853833,17.8844204 10.7101538,18.104321 C10.3371826,18.3207726 10.0375011,18.6493203 9.85130602,19.0458957 C9.65202611,19.4527119 9.55238616,19.9399917 9.55238616,20.5077352 L9.55238616,21.2768878 C9.55238616,21.838634 9.65202611,22.3249143 9.85130602,22.7357287 C10.0505859,23.1425449 10.3368685,23.4554036 10.7101538,23.6743047 C11.0853833,23.8912067 11.532548,23.9996577 12.0516479,23.9996577 C12.5726919,23.9996577 13.0183985,23.8912067 13.3887675,23.6743047 C13.7620528,23.454404 14.0483354,23.1415454 14.2476153,22.7357287 C14.4459231,22.3259139 14.545563,21.8396335 14.5465351,21.2768878 M16.4275431,19.8750211 L16.4275431,23.8857092 L15.3397664,23.8857092 L15.3397664,17.8899179 L16.3050588,17.8899179 L18.8597301,21.8781162 L18.9063907,21.8781162 L18.9063907,17.8899179 L20,17.8899179 L20,23.8872085 L19.0434564,23.8872085 L16.4756619,19.8750211 L16.4275431,19.8750211 Z" id="Shape"></path>
        </g>
    </g>
</svg>