<?xml version="1.0" encoding="UTF-8"?>
<svg width="24px" height="24px" viewBox="0 0 24 24" version="1.1" xmlns="http://www.w3.org/2000/svg" xmlns:xlink="http://www.w3.org/1999/xlink">
    <title>markdown-d</title>
    <g id="markdown-d" stroke="none" stroke-width="1" fill="none" fill-rule="evenodd">
        <g id="markdown" transform="translate(-0, 5)" fill="#FFFFFF" fill-rule="nonzero">
            <path d="M22.27,14.77 L1.73,14.77 C1.27117547,14.77 0.831143203,14.5877327 0.506705269,14.2632947 C0.182267334,13.9388568 0,13.4988245 0,13.04 L0,1.73 C0,0.774547383 0.774547383,0 1.73,0 L22.27,0 C22.7288245,0 23.1688568,0.182267334 23.4932947,0.506705269 C23.8177327,0.831143203 24,1.27117547 24,1.73 L24,13.038 C24.0002653,13.4969978 23.8181151,13.937287 23.4936484,14.2619412 C23.1691817,14.5865955 22.7289978,14.7690001 22.27,14.769 L22.27,14.77 Z M5.769,11.308 L5.769,6.808 L8.077,9.693 L10.384,6.808 L10.384,11.308 L12.692,11.308 L12.692,3.463 L10.384,3.463 L8.077,6.348 L5.769,3.463 L3.46,3.463 L3.46,11.31 L5.769,11.308 Z M21.232,7.385 L18.923,7.385 L18.923,3.462 L16.616,3.462 L16.616,7.385 L14.308,7.385 L17.769,11.424 L21.232,7.385 Z" id="Shape"></path>
        </g>
    </g>
</svg>