<?xml version="1.0" encoding="UTF-8"?>
<svg width="24px" height="24px" viewBox="0 0 24 24" version="1.1" xmlns="http://www.w3.org/2000/svg" xmlns:xlink="http://www.w3.org/1999/xlink">
    <title>mocha</title>
    <g id="mocha" stroke="none" stroke-width="1" fill="none" fill-rule="evenodd">
        <g transform="translate(5, 0)" fill="#8D6748" fill-rule="nonzero" id="Shape">
            <path d="M8.581,0 C7.674,1.116 6.139,2.302 7.813,4.814 C8.371,5.442 8.651,6.767 8.581,7.186 C8.581,7.186 11.093,5.722 9.558,3.07 C8.651,1.675 8.232,0.488 8.581,0 L8.581,0 Z M5.791,2.582 C5.163,3.349 4.186,4.117 5.302,5.861 C5.652,6.21 5.791,7.117 5.791,7.396 C5.791,7.396 7.464,6.418 6.418,4.604 C5.79,3.697 5.512,2.861 5.791,2.582 Z M0.697,8.582 C0.312124195,8.58310083 0.000549037106,8.89512301 0,9.28 C0,11.652 0.349,19.815 3.837,23.792 C3.977,23.931 4.117,24 4.326,24 L10.186,24 C10.396,24 10.536,23.931 10.675,23.792 C14.163,19.884 14.512,11.722 14.512,9.28 C14.511451,8.89457073 14.1994281,8.58210084 13.814,8.581 L7.256,8.581 L0.697,8.582 Z M2.72,10.745 L11.93,10.745 C12.279,10.745 12.627,11.023 12.627,11.442 C12.627,13.395 12.279,18.907 9.907,21.768 C9.697,21.908 9.557,21.976 9.348,21.976 L5.232,21.976 C5.04672561,21.9814586 4.86836792,21.9054373 4.744,21.768 C2.372,18.978 2.092,13.395 2.022,11.442 C2.022,11.092 2.302,10.745 2.72,10.745 Z M11.512,15.489 C11.512,15.489 11.441,16.116 9.767,16.744 C7.464,17.581 3.419,17.024 3.419,17.024 C3.768,18.489 4.325,19.884 5.162,20.931 C5.232,21.071 5.442,21.14 5.581,21.14 L9.07,21.14 C9.21,21.14 9.349,21.07 9.488,20.931 C10.674,19.536 11.233,17.373 11.512,15.489 Z"></path>
        </g>
    </g>
</svg>