<?xml version="1.0" encoding="UTF-8"?>
<svg width="24px" height="24px" viewBox="0 0 24 24" version="1.1" xmlns="http://www.w3.org/2000/svg" xmlns:xlink="http://www.w3.org/1999/xlink">
    <title>nodejs</title>
    <g id="nodejs" stroke="none" stroke-width="1" fill="none" fill-rule="evenodd">
        <g transform="translate(2, 1)" fill="#339933" fill-rule="nonzero" id="Shape">
            <path d="M9.99859042,22 C9.69694122,22 9.39623173,21.9230008 9.13217122,21.7735857 L6.37316168,20.1813523 C5.96156557,19.9567713 6.16266504,19.8770221 6.29798431,19.8302726 C6.84771884,19.6441912 6.95860546,19.6011083 7.54592868,19.2766117 C7.60701029,19.2426954 7.68782596,19.2555286 7.75078701,19.2921949 L9.87078889,20.5195988 C9.9478457,20.5608483 10.0559132,20.5608483 10.126392,20.5195988 L18.3912042,15.8666472 C18.4682611,15.8235643 18.5171263,15.7373986 18.5171263,15.6484828 L18.5171263,6.34441308 C18.5171263,6.25366402 18.4673213,6.16841491 18.3883851,6.12258206 L10.1273317,1.47329715 C10.0512146,1.43021427 9.94972513,1.43021427 9.87266833,1.47329715 L1.61349434,6.12349871 C1.53361838,6.16841491 1.48287366,6.256414 1.48287366,6.34441308 L1.48287366,15.6484828 C1.48287366,15.7373986 1.53361838,15.821731 1.61349434,15.8638973 L3.87727294,17.139884 C5.10548325,17.7393777 5.85819668,17.0335517 5.85819668,16.3240591 L5.85819668,7.13823814 C5.85819668,7.00807283 5.96532444,6.90632389 6.09876427,6.90632389 L7.14654889,6.90632389 C7.27716957,6.90632389 7.38617676,7.00898949 7.38617676,7.13823814 L7.38617676,16.3240591 C7.38617676,17.9236258 6.49344547,18.8402829 4.93915331,18.8402829 C4.46177701,18.8402829 4.08495043,18.8402829 3.03528638,18.3352048 L0.866419208,17.1188008 C0.330780435,16.8172207 0,16.2525599 0,15.6484828 L0,6.34441308 C0,5.74033604 0.331720152,5.17567525 0.866419208,4.87501172 L9.1312315,0.216560244 C9.65465395,-0.0721867481 10.3491049,-0.0721867481 10.8678288,0.216560244 L19.1317014,4.87501172 C19.6673401,5.17659191 20,5.74033604 20,6.34441308 L20,15.6484828 C20,16.2525599 19.6673401,16.8153873 19.1317014,17.1188008 L10.8678288,21.7735857 C10.604708,21.9230008 10.3049382,22 9.99859042,22 Z M16.6715219,12.8270122 C16.6715219,11.0853637 15.4649251,10.6215352 12.9248696,10.2942886 C10.3585021,9.96337538 10.0972607,9.7919605 10.0972607,9.2062166 C10.0972607,8.72222164 10.3180943,8.07597838 12.219142,8.07597838 C13.9172109,8.07597838 14.5430625,8.43255799 14.800545,9.54904636 C14.8230982,9.65446193 14.9217685,9.73146113 15.0326552,9.73146113 L16.1048724,9.73146113 C16.1715924,9.73146113 16.2345534,9.70304476 16.2796598,9.6572119 C16.3247662,9.60771242 16.3491989,9.54446308 16.3426209,9.47754711 C16.1762909,7.55440047 14.8663252,6.65790981 12.219142,6.65790981 C9.86233144,6.65790981 8.45651459,7.62773304 8.45651459,9.25479943 C8.45651459,11.0193644 9.8548137,11.507026 12.1167129,11.7251904 C14.8230982,11.9836877 15.0326552,12.3696003 15.0326552,12.8884282 C15.0326552,13.7895022 14.2912183,14.1735815 12.5499225,14.1735815 C10.3632007,14.1735815 9.8820655,13.6382538 9.72043415,12.5767648 C9.70163981,12.4630993 9.60202979,12.3796835 9.48268571,12.3796835 L8.41422732,12.3796835 C8.2817272,12.3796835 8.17553916,12.4823491 8.17553916,12.6115978 C8.17553916,13.9700836 8.93295118,15.5889007 12.5499225,15.5889007 C15.1698539,15.5898168 16.6715219,14.5842439 16.6715219,12.8270122 Z"></path>
        </g>
    </g>
</svg>