<?xml version="1.0" encoding="UTF-8"?>
<svg width="24px" height="24px" viewBox="0 0 24 24" version="1.1" xmlns="http://www.w3.org/2000/svg" xmlns:xlink="http://www.w3.org/1999/xlink">
    <title>pdf</title>
    <g id="pdf" stroke="none" stroke-width="1" fill="none" fill-rule="evenodd">
        <g transform="translate(0.5, 1)" fill="#EC1C24" fill-rule="nonzero" id="Shape">
            <path d="M22.6452774,14.0996499 C21.9648721,13.3998805 20.5695619,13.0006831 18.5973446,13.0006831 C17.5431955,13.0006831 16.3194241,13.1002476 14.9931128,13.333191 C14.1805406,12.567311 13.4405596,11.7307317 12.7822745,10.8337461 C12.2724496,10.1668517 11.8297069,9.43420716 11.4214637,8.73349842 C12.2044091,6.4003074 12.5781529,4.50012808 12.5781529,3.13346426 C12.5781529,1.60054649 12.0002874,0 10.3337734,0 C9.82394856,0 9.31316537,0.300572112 9.04100322,0.73358381 C8.29351563,2.03355819 8.63371831,4.86645035 9.92553021,7.66646742 C9.43930472,9.09834521 8.89486505,10.5105965 8.29351563,11.8998378 C7.74919133,13.1669371 7.13682649,14.4669115 6.45642111,15.666382 C2.71610819,17.1335497 0.301148266,18.8336607 0.0289861162,20.1655708 C-0.0725955313,20.6662113 0.0970266537,21.1330373 0.471728769,21.4993596 C0.607809844,21.5998634 1.08409361,22 1.89962174,22 C4.38166388,22 7.00074541,18.0662625 8.32705674,15.7001964 C9.3476648,15.3667492 10.3682729,15.033302 11.3879226,14.7665443 C12.4636976,14.4801982 13.553382,14.2466513 14.6529101,14.0667748 C17.2710333,16.3661515 19.5834533,16.733413 20.7401424,16.733413 C22.1680354,16.733413 22.6788186,16.1660832 22.8484407,15.7001964 C23.1551023,15.0990522 22.9500224,14.4330971 22.6443191,14.0996499 L22.6452774,14.0996499 Z M21.2844667,15.0671164 C21.1819267,15.5668175 20.6711435,15.9002647 19.9581554,15.9002647 C19.7540338,15.9002647 19.5844116,15.8664503 19.3793316,15.8335753 C18.0875198,15.5330032 16.8627901,14.8999231 15.6390187,13.8995816 C16.582549,13.7431931 17.5378795,13.6652678 18.4948047,13.6666204 C19.2097095,13.6666204 19.8220743,13.6995133 20.2293592,13.8000171 C20.705643,13.8995816 21.4540889,14.2001537 21.2835084,15.0661771 L21.2844667,15.0671164 Z M14.0740864,13.5003843 C13.12515,13.6746688 12.1836583,13.8858622 11.2518415,14.1334643 C10.4391933,14.3405237 9.6337651,14.5739081 8.83688161,14.8332337 C9.25112616,14.0468585 9.63692928,13.2464002 9.99357075,12.4333533 C10.401814,11.4997011 10.7410583,10.5331739 11.0822193,9.63333618 C11.4214637,10.1997268 11.7961658,10.7670566 12.1699096,11.2667577 C12.7809976,12.0303565 13.4160266,12.7752546 14.0740864,13.5003843 L14.0740864,13.5003843 Z M9.61982695,1.09990607 C9.74235464,0.859214666 9.99133489,0.705334289 10.2657329,0.700708735 C10.9796794,0.700708735 11.1157605,1.50004269 11.1157605,2.13406199 C11.1157605,3.2001537 10.7755578,4.83357527 10.1976924,6.69994023 C9.21062541,4.09999146 9.14354319,1.93399368 9.61982695,1.09990607 Z M5.8785557,16.6329092 C4.14400116,19.4329263 2.47748715,21.1659277 1.4578374,21.1659277 C1.27385682,21.1670146 1.09464773,21.1085745 0.948012531,20.9996584 C0.743890918,20.7995901 0.641350954,20.5666467 0.709391491,20.299889 C0.913513103,19.2995474 2.88573037,17.9000085 5.8785557,16.6329092 L5.8785557,16.6329092 Z"></path>
        </g>
    </g>
</svg>