<?xml version="1.0" encoding="UTF-8"?>
<svg width="24px" height="24px" viewBox="0 0 24 24" version="1.1" xmlns="http://www.w3.org/2000/svg" xmlns:xlink="http://www.w3.org/1999/xlink">
    <title>prettier-d</title>
    <g id="prettier-d" stroke="none" stroke-width="1" fill="none" fill-rule="evenodd">
        <g id="prettier" transform="translate(2, 0)" fill="#FFFFFF" fill-rule="nonzero">
            <path d="M6.8565,23.429 C6.8565,23.5804386 6.79634124,23.7256747 6.68925797,23.832758 C6.5821747,23.9398412 6.43693862,24 6.2855,24 L0.5715,24 C0.255869265,24 0,23.7441307 0,23.4285 C0,23.1128693 0.255869265,22.857 0.5715,22.857 L6.2855,22.857 C6.6015,22.857 6.8565,23.113 6.8565,23.429 Z M6.2855,20.57 L5.1425,20.57 C4.82686927,20.57 4.571,20.8258693 4.571,21.1415 C4.571,21.4571307 4.82686927,21.713 5.1425,21.713 L6.2855,21.713 C6.60113073,21.713 6.857,21.4571307 6.857,21.1415 C6.857,20.8258693 6.60113073,20.57 6.2855,20.57 Z M0.5715,21.713 L2.8555,21.713 C3.17113073,21.713 3.427,21.4571307 3.427,21.1415 C3.427,20.8258693 3.17113073,20.57 2.8555,20.57 L0.5715,20.57 C0.255869265,20.57 0,20.8258693 0,21.1415 C0,21.4571307 0.255869265,21.713 0.5715,21.713 Z M6.2855,18.286 L0.5715,18.286 C0.255869279,18.286 3.40640542e-08,18.5418693 3.40640542e-08,18.8575 C3.40640542e-08,19.1731307 0.255869279,19.429 0.5715,19.429 L6.2855,19.429 C6.60113073,19.429 6.857,19.1731307 6.857,18.8575 C6.857,18.5418693 6.60113073,18.286 6.2855,18.286 L6.2855,18.286 Z M14.2855,16 L3.9995,16 C3.68386927,16 3.428,16.2558693 3.428,16.5715 C3.428,16.8871307 3.68386927,17.143 3.9995,17.143 L14.2855,17.143 C14.6011307,17.143 14.857,16.8871307 14.857,16.5715 C14.857,16.2558693 14.6011307,16 14.2855,16 Z M0.5715,17.143 L1.7145,17.143 C2.03013073,17.143 2.286,16.8871307 2.286,16.5715 C2.286,16.2558693 2.03013073,16 1.7145,16 L0.5715,16 C0.255869265,16 0,16.2558693 0,16.5715 C0,16.8871307 0.255869265,17.143 0.5715,17.143 Z M17.7145,13.714 L14.2855,13.714 C13.9698693,13.714 13.714,13.9698693 13.714,14.2855 C13.714,14.6011307 13.9698693,14.857 14.2855,14.857 L17.7145,14.857 C18.0301307,14.857 18.286,14.6011307 18.286,14.2855 C18.286,13.9698693 18.0301307,13.714 17.7145,13.714 L17.7145,13.714 Z M7.4285,14.857 L11.9995,14.857 C12.3151307,14.857 12.571,14.6011307 12.571,14.2855 C12.571,13.9698693 12.3151307,13.714 11.9995,13.714 L7.4285,13.714 C7.11286927,13.714 6.857,13.9698693 6.857,14.2855 C6.857,14.6011307 7.11286927,14.857 7.4285,14.857 Z M0.5715,14.857 L5.1425,14.857 C5.45813073,14.857 5.714,14.6011307 5.714,14.2855 C5.714,13.9698693 5.45813073,13.714 5.1425,13.714 L0.5715,13.714 C0.255869265,13.714 0,13.9698693 0,14.2855 C0,14.6011307 0.255869265,14.857 0.5715,14.857 Z M18.8555,11.43 L9.7155,11.43 C9.40014541,11.43 9.1445,11.6856454 9.1445,12.001 C9.1445,12.3163546 9.40014541,12.572 9.7155,12.572 L18.8575,12.572 C19.1728546,12.572 19.4285,12.3163546 19.4285,12.001 C19.4285,11.6856454 19.1728546,11.43 18.8575,11.43 L18.8555,11.43 Z M7.9995,12 C7.9995,11.6846454 7.74385459,11.429 7.42850003,11.429 L3.9995,11.429 C3.68414542,11.429 3.42850003,11.6846454 3.42850003,12 C3.42850003,12.3153546 3.68414542,12.571 3.9995,12.571 L7.42850003,12.571 C7.74385459,12.571 7.9995,12.3153546 7.9995,12 L7.9995,12 Z M0.5715,12.571 L1.7145,12.571 C2.02985458,12.571 2.28549997,12.3153546 2.28549997,12 C2.28549997,11.6846454 2.02985458,11.429 1.7145,11.429 L0.5715,11.429 C0.256145421,11.429 0.000500034034,11.6846454 0.000500034034,12 C0.000500034034,12.3153546 0.256145421,12.571 0.5715,12.571 Z M19.9995,9.143 L14.2855,9.143 C13.9698693,9.143 13.714,9.39886927 13.714,9.7145 C13.714,10.0301307 13.9698693,10.286 14.2855,10.286 L19.9995,10.286 C20.3151307,10.286 20.571,10.0301307 20.571,9.7145 C20.571,9.39886927 20.3151307,9.143 19.9995,9.143 L19.9995,9.143 Z M0.5715,10.286 L6.2855,10.286 C6.60113073,10.286 6.857,10.0301307 6.857,9.7145 C6.857,9.39886927 6.60113073,9.143 6.2855,9.143 L0.5715,9.143 C0.255869265,9.143 0,9.39886927 0,9.7145 C0,10.0301307 0.255869265,10.286 0.5715,10.286 Z M13.7144991,7.429 C13.7144991,7.744 13.9695,8 14.2855,8 L19.9995,8 C20.3151307,8 20.571,7.74413073 20.571,7.4285 C20.571,7.11286927 20.3151307,6.857 19.9995,6.857 L14.2855,6.857 C14.133888,6.857 13.9885001,6.91729578 13.8813881,7.02459543 C13.774276,7.13189508 13.7142345,7.2773882 13.7144991,7.429 L13.7144991,7.429 Z M5.1425,6.857 C4.82686927,6.857 4.571,7.11286927 4.571,7.4285 C4.571,7.74413073 4.82686927,8 5.1425,8 L6.2855,8 C6.60113073,8 6.857,7.74413073 6.857,7.4285 C6.857,7.11286927 6.60113073,6.857 6.2855,6.857 L5.1425,6.857 L5.1425,6.857 Z M0.5715,8 L2.8555,8 C3.17113073,8 3.427,7.74413073 3.427,7.4285 C3.427,7.11286927 3.17113073,6.857 2.8555,6.857 L0.5715,6.857 C0.255869265,6.857 4.4408921e-16,7.11286927 4.4408921e-16,7.4285 C4.4408921e-16,7.74413073 0.255869265,8 0.5715,8 Z M17.1425,5.143 C17.1425,5.458 17.3985,5.714 17.7145,5.714 L18.8565,5.714 C19.1721307,5.714 19.428,5.45813073 19.428,5.1425 C19.428,4.82686927 19.1721307,4.57099912 18.8565,4.57099912 L17.7155,4.57099912 C17.5637148,4.57073394 17.4180697,4.63091261 17.3107412,4.73824115 C17.2034126,4.84556969 17.1432339,4.99121476 17.1435,5.143 L17.1425,5.143 Z M15.9995009,5.143 C15.9997655,4.9913882 15.939724,4.84589508 15.8326119,4.73859543 C15.7254999,4.63129578 15.580112,4.571 15.4285,4.571 L10.8555,4.571 C10.5398693,4.571 10.284,4.82686927 10.284,5.1425 C10.284,5.45813073 10.5398693,5.714 10.8555,5.714 L15.4275,5.714 C15.7428546,5.714 15.9985,5.45835459 15.9985,5.143 L15.9995009,5.143 Z M0.5715,5.714 L8.5715,5.714 C8.88713073,5.714 9.143,5.45813073 9.143,5.1425 C9.143,4.82686927 8.88713073,4.571 8.5715,4.571 L0.5715,4.571 C0.255869265,4.571 0,4.82686927 0,5.1425 C0,5.45813073 0.255869265,5.714 0.5715,5.714 Z M5.7145,2.857 C5.7145,3.173 5.9695,3.429 6.2855,3.429 L17.7145,3.429 C18.0301307,3.429 18.286,3.17313073 18.286,2.8575 C18.286,2.54186927 18.0301307,2.286 17.7145,2.286 L6.2855,2.286 C5.97014541,2.286 5.7145,2.54164541 5.7145,2.857 Z M0.5715,3.429 L3.9995,3.429 C4.31513073,3.429 4.571,3.17313073 4.571,2.8575 C4.571,2.54186927 4.31513073,2.286 3.9995,2.286 L0.5715,2.286 C0.255869265,2.286 4.4408921e-16,2.54186927 4.4408921e-16,2.8575 C4.4408921e-16,3.17313073 0.255869265,3.429 0.5715,3.429 L0.5715,3.429 Z M0.5715,1.143 L14.2855,1.143 C14.6011307,1.143 14.857,0.887130735 14.857,0.5715 C14.857,0.255869265 14.6011307,0 14.2855,0 L0.5715,0 C0.255869265,0 0,0.255869265 0,0.5715 C0,0.887130735 0.255869265,1.143 0.5715,1.143 L0.5715,1.143 Z" id="Shape"></path>
        </g>
    </g>
</svg>