<?xml version="1.0" encoding="UTF-8"?>
<svg width="24px" height="24px" viewBox="0 0 24 24" version="1.1" xmlns="http://www.w3.org/2000/svg" xmlns:xlink="http://www.w3.org/1999/xlink">
    <title>prisma-d</title>
    <g id="prisma-d" stroke="none" stroke-width="1" fill="none" fill-rule="evenodd">
        <g id="prisma" transform="translate(3, 1)" fill="#FFFFFF" fill-rule="nonzero">
            <path d="M17.8820207,16.7610638 L10.4067309,0.693446648 C10.2192599,0.291763094 9.82801626,0.0267546154 9.38460678,0.00218793529 C8.92969545,-0.0246704128 8.52214996,0.197438042 8.29220374,0.575379916 L0.18476554,13.8665039 C-0.0663730452,14.2806541 -0.0613919337,14.7915127 0.199074915,15.2007129 L4.16213779,21.414433 C4.39833304,21.7853165 4.80759927,22 5.23289563,22 C5.35352909,22 5.47470595,21.9827667 5.59398093,21.9471083 L17.0975409,18.5033731 C17.4499319,18.3978647 17.7380213,18.1455062 17.8888132,17.8110144 C18.039605,17.4765225 18.0367069,17.0934473 17.8820207,16.7610638 Z M16.2082767,17.4503058 L6.44774344,20.3721824 C6.14960127,20.4615575 5.86377604,20.2004907 5.92644748,19.8960655 L9.41331609,2.99400624 C9.47852337,2.6779394 9.91015932,2.62770604 10.0463701,2.92039787 L16.5026151,16.7969055 C16.6243354,17.0587056 16.4854076,17.3674391 16.2082767,17.4503058 Z" id="Shape"></path>
        </g>
    </g>
</svg>