<?xml version="1.0" encoding="UTF-8"?>
<svg width="24px" height="24px" viewBox="0 0 24 24" version="1.1" xmlns="http://www.w3.org/2000/svg" xmlns:xlink="http://www.w3.org/1999/xlink">
    <title>sql-d</title>
    <g id="sql-d" stroke="none" stroke-width="1" fill="none" fill-rule="evenodd">
        <g id="sql" transform="translate(1.5, 0)" fill="#FFFFFF" fill-rule="nonzero">
            <path d="M21,6.61359461 L21,20.5756277 C21,22.1989999 19.6568542,23.5150031 18,23.5150031 L18,22.0453154 C18.8284271,22.0453154 19.5,21.3873138 19.5,20.5756277 L19.5,6.61359461 L16.5,6.61359461 C15.2573593,6.61359461 14.25,5.62659222 14.25,4.40906307 L14.25,1.46968769 L6,1.46968769 C5.17157288,1.46968769 4.5,2.12768928 4.5,2.93937538 L4.5,16.1665646 L3,16.1665646 L3,2.93937538 C3,1.31600318 4.34314575,0 6,0 L14.25,0 L21,6.61359461 Z M0,21.811635 C0.0173642001,22.2799067 0.235820986,22.7192002 0.6015,23.021188 C0.7955,23.1799143 1.0345,23.303368 1.3185,23.3915493 C1.7445,23.5238212 1.935,23.5252909 2.316,23.5252909 C2.823,23.5252909 3.252,23.4478873 3.603,23.2930802 C3.958,23.1372933 4.228,22.9217391 4.413,22.6464176 C4.60216213,22.3594779 4.69981318,22.0238385 4.6935,21.6823025 C4.6935,21.3530925 4.626,21.0787508 4.491,20.8592774 C4.35376266,20.6390337 4.15975988,20.4580753 3.9285,20.3345989 C3.66353564,20.190362 3.37779122,20.0863024 3.081,20.0259645 L2.1495,19.8143295 C1.92985736,19.7735397 1.72229728,19.6851636 1.542,19.5556644 C1.40379483,19.4505073 1.32429885,19.2876474 1.3275,19.1162278 C1.3275,18.8869565 1.4195,18.6988365 1.6035,18.5518677 C1.7905,18.4029394 2.047,18.3284752 2.373,18.3284752 C2.587,18.3284752 2.772,18.3617881 2.928,18.428414 C3.07181543,18.4846345 3.19839457,18.5762583 3.2955,18.6944274 C3.387819,18.8035281 3.44982045,18.9341374 3.4755,19.0736069 L4.6005,19.0736069 C4.58159028,18.7745823 4.47824597,18.4865882 4.302,18.2417636 C4.11298055,17.977453 3.85356215,17.7690286 3.552,17.6391917 C3.18385621,17.4802543 2.78411562,17.4039303 2.382,17.4157991 C1.942,17.4157991 1.554,17.4892835 1.218,17.6362523 C0.881,17.7822413 0.617,17.9884874 0.426,18.2549908 C0.236,18.522474 0.141,18.8355175 0.141,19.1941212 C0.141,19.4900184 0.2025,19.7467238 0.3255,19.9642376 C0.4485,20.1817514 0.624,20.3615432 0.852,20.503613 C1.081,20.6437232 1.351,20.748071 1.662,20.8166565 L2.589,21.0282915 C2.899,21.0998163 3.13,21.1943662 3.282,21.3119412 C3.43323701,21.4251074 3.51884381,21.6032772 3.5115,21.7895897 C3.5115,21.9512554 3.469,22.0933252 3.384,22.2157991 C3.28716145,22.3455388 3.15366929,22.4446565 3,22.5009186 C2.833,22.569504 2.6265,22.6037967 2.3805,22.6037967 C2.2045,22.6037967 2.0445,22.5842009 1.9005,22.5450092 C1.76752152,22.5099999 1.64168477,22.4528274 1.5285,22.3759951 C1.32690243,22.2477262 1.1884527,22.0434504 1.146,21.811635 L0,21.811635 Z M10.317,24 L9.5565,22.9139008 C9.8205,22.6758114 10.021,22.3818739 10.158,22.0320882 C10.296,21.6813227 10.365,21.2864666 10.365,20.8475199 L10.365,20.1112064 C10.365,19.5664421 10.261,19.0927128 10.053,18.6900184 C9.85880561,18.3000421 9.55146992,17.9748884 9.1695,17.755297 C8.7865,17.5348438 8.328,17.4246173 7.794,17.4246173 C7.267,17.4246173 6.81,17.5348438 6.423,17.755297 C6.039,17.9737906 5.743,18.2853644 5.535,18.6900184 C5.32070726,19.1337437 5.21539812,19.6204562 5.2275,20.1112064 L5.2275,20.8460502 C5.2275,21.3888549 5.33,21.8616044 5.535,22.2642988 C5.743,22.6660135 6.039,22.9775873 6.423,23.1990202 C6.8424093,23.4249104 7.31556348,23.5375116 7.794,23.5252909 C8.10033713,23.526681 8.40468178,23.4769819 8.694,23.3783221 L9.135,23.9985303 L10.317,23.9985303 L10.317,24 Z M6.393,20.8695652 L6.393,20.1023882 C6.393,19.7408451 6.45,19.4322107 6.564,19.176485 C6.66503266,18.9392328 6.83443811,18.7359686 7.0515,18.5915493 C7.27362319,18.454679 7.53164239,18.3842 7.794,18.3887324 C8.082,18.3887324 8.3295,18.456338 8.5365,18.5915493 C8.75356189,18.7359686 8.92296734,18.9392328 9.024,19.176485 C9.139,19.4322107 9.1965,19.7408451 9.1965,20.1023882 L9.1965,20.8695652 C9.1965,21.110594 9.17,21.3285977 9.117,21.5235762 C9.064,21.7156154 8.9865,21.88218 8.8845,22.0232701 L8.7255,21.8175138 L8.568,21.6014697 L7.4685,21.6014697 L8.145,22.5567667 C8.0260127,22.6059952 7.89760486,22.6295538 7.7685,22.625842 C7.50846998,22.6267439 7.25409364,22.5515125 7.038,22.4097979 C6.8223473,22.2619571 6.65550543,22.0555758 6.558,21.8160441 C6.44106145,21.5139708 6.38502686,21.1925432 6.393,20.8695652 M12.372,22.4230251 L14.916,22.4230251 L14.916,23.4135946 L11.1855,23.4135946 L11.1855,17.5363135 L12.3705,17.5363135 L12.372,22.4230251 Z" id="Shape"></path>
        </g>
    </g>
</svg>