<?xml version="1.0" encoding="UTF-8"?>
<svg width="24px" height="24px" viewBox="0 0 24 24" version="1.1" xmlns="http://www.w3.org/2000/svg" xmlns:xlink="http://www.w3.org/1999/xlink">
    <title>square-d</title>
    <g id="square-d" stroke="none" stroke-width="1" fill="none" fill-rule="evenodd">
        <g id="square" transform="translate(2, 2)" fill="#FFFFFF" fill-rule="nonzero">
            <path d="M3.34166667,0 C1.49611513,0 0,1.49611513 0,3.34166667 L0,16.6583333 C0,18.5 1.5,19.9916667 3.34166667,20 L16.6583333,20 C18.5,20 20,18.5 20,16.6583333 L20,3.33333333 C19.9954057,1.491037 18.5006354,0 16.6583333,0 L3.33333333,0 L3.34166667,0 Z M4.69166667,3.63333333 L15.3083333,3.63333333 C15.8916667,3.63333333 16.3583333,4.10833333 16.3583333,4.69166667 L16.3583333,15.3083333 C16.3583333,15.8916667 15.8916667,16.3666667 15.3083333,16.3666667 L4.69166667,16.3666667 C4.10833333,16.3666667 3.64166667,15.8916667 3.64166667,15.3083333 L3.64166667,4.69166667 C3.64166667,4.11040427 4.11042229,3.6379102 4.69166667,3.63333333 Z M7.88333333,7.25833333 C7.54736011,7.25833333 7.275,7.53069344 7.275,7.86666667 L7.275,12.1083333 C7.275,12.4416667 7.54166667,12.7083333 7.875,12.7083333 L12.125,12.7083333 C12.4577456,12.7083333 12.7287752,12.4410477 12.7333333,12.1083333 L12.7333333,7.86666667 C12.7333333,7.70532664 12.6692413,7.55059467 12.5551566,7.43651004 C12.441072,7.32242541 12.28634,7.25833333 12.125,7.25833333 L7.875,7.25833333 L7.88333333,7.25833333 Z" id="Shape"></path>
        </g>
    </g>
</svg>