<?xml version="1.0" encoding="UTF-8"?>
<svg width="24px" height="24px" viewBox="0 0 24 24" version="1.1" xmlns="http://www.w3.org/2000/svg" xmlns:xlink="http://www.w3.org/1999/xlink">
    <title>swift-3</title>
    <g id="swift-3" stroke="none" stroke-width="1" fill="none" fill-rule="evenodd">
        <g transform="translate(1, 1)" fill="#3D4755" fill-rule="nonzero" id="Shape">
            <path d="M6.88233333,0 C6.61925,0 6.35708333,0 6.094,0.00183333333 C5.87308333,0.00366666667 5.65125,0.00458333333 5.43033333,0.011 C5.30933333,0.01375 5.18925,0.01925 5.06825,0.02475 C4.70532908,0.038864973 4.34370742,0.0765275169 3.98566667,0.1375 C3.50849215,0.221875083 3.04599908,0.374701566 2.6125,0.59125 C1.7422987,1.03390986 1.03469933,1.74086741 0.59125,2.61066667 C0.366666667,3.05066667 0.224583333,3.50166667 0.1375,3.98566667 C0.05225,4.46233333 0.0256666667,4.94816667 0.0128333333,5.43033333 C0.00689132154,5.65151199 0.00322446091,5.87274591 0.00183333333,6.094 C0,6.35708333 0,6.61925 0,6.88233333 L0,15.1176667 C0,15.38075 0,15.64475 0.00183333333,15.9078333 C0.00366666667,16.1278333 0.00641666667,16.34875 0.0128333333,16.5696667 C0.0256666667,17.0518333 0.05225,17.5385833 0.1375,18.0143333 C0.224583333,18.4983333 0.366666667,18.9493333 0.59125,19.3893333 C1.03418235,20.2595084 1.74192341,20.9666075 2.6125,21.40875 C3.0525,21.6324167 3.50166667,21.7754167 3.98566667,21.8625 C4.46233333,21.94775 4.94816667,21.9761667 5.43033333,21.989 C5.65125,21.9954167 5.87308333,21.99725 6.094,21.9981667 C6.35708333,22 6.61925,22 6.88233333,22 L15.1176667,22 C15.38075,22 15.6429167,22 15.906,21.9981667 C16.1269167,21.99725 16.34875,21.9954167 16.5696667,21.989 C17.0543267,21.9832349 17.537863,21.9409485 18.0161667,21.8625 C18.4938899,21.7803109 18.956696,21.6273809 19.3893333,21.40875 C20.2590406,20.9660365 20.9660365,20.2590406 21.40875,19.3893333 C21.6333333,18.9493333 21.7754167,18.4983333 21.8625,18.0143333 C21.94775,17.5376667 21.9761667,17.0518333 21.989,16.5696667 C21.9954167,16.34875 21.99725,16.12875 21.9981667,15.9078333 C22,15.64475 22,15.38075 22,15.1176667 L22,6.88233333 C22,6.61925 22,6.35708333 21.9981667,6.094 C21.9974905,5.87275131 21.9944348,5.65151629 21.989,5.43033333 C21.9832228,4.94628183 21.9409362,4.46335589 21.8625,3.98566667 C21.7804073,3.50733442 21.6274771,3.04390954 21.40875,2.61066667 C20.96583,1.74110936 20.2588906,1.03416997 19.3893333,0.59125 C18.9567065,0.3725938 18.4938965,0.219662574 18.0161667,0.1375 C17.537876,0.0589476517 17.0543319,0.0166605251 16.5696667,0.011 C16.349093,0.00566749978 16.1284701,0.00261178147 15.9078333,0.00183333333 C15.64475,0 15.38075,0 15.1176667,0 L6.88233333,0 Z M12.4144167,3.12583333 C16.1855833,5.39 18.414,9.691 17.501,13.32925 C17.479,13.4145 17.4551667,13.4951667 17.4313333,13.5785833 L17.4331667,13.5795 C19.3233333,15.906 18.8081667,18.3993333 18.5661667,17.9290833 C17.5835,16.0169167 15.7556667,16.49175 14.8188333,16.973 C14.7341283,17.0233056 14.6482431,17.071597 14.56125,17.1178333 L14.5429167,17.1288333 L14.5410833,17.1306667 C12.6023333,18.1600833 9.99716667,18.23525 7.38008333,17.1105 C5.24914268,16.1871122 3.44702471,14.6412529 2.21008333,12.6756667 C2.805,13.1156667 3.44758333,13.5025 4.13233333,13.8233333 C6.89975,15.1195 9.67908333,15.0250833 11.64625,13.8215 C8.84675,11.6691667 6.50925,8.86416667 4.71716667,6.59175 C4.37649823,6.19429804 4.06841749,5.77003562 3.79591667,5.32308333 C5.94091667,7.28658333 9.33075,9.75058333 10.5471667,10.4344167 C7.96583333,7.70733333 5.69066667,4.34775 5.797,4.455 C9.86333333,8.5525 13.6143333,10.868 13.6143333,10.868 C13.7555,10.9459167 13.8618333,11.0091667 13.9443333,11.06325 C14.02225,10.8661667 14.091,10.6626667 14.1496667,10.4509167 C14.7986667,8.07858333 14.0671667,5.36525 12.4144167,3.12491667 L12.4144167,3.12583333 Z"></path>
        </g>
    </g>
</svg>