<?xml version="1.0" encoding="UTF-8"?>
<svg width="24px" height="24px" viewBox="0 0 24 24" version="1.1" xmlns="http://www.w3.org/2000/svg" xmlns:xlink="http://www.w3.org/1999/xlink">
    <title>typescript-3</title>
    <g id="typescript-3" stroke="none" stroke-width="1" fill="none" fill-rule="evenodd">
        <g transform="translate(1, 1)" fill="#3D4755" fill-rule="nonzero" id="Combined-Shape">
            <path d="M17.5132009,1.81272054e-16 C19.0733587,-1.05324284e-16 19.6391096,0.16244482 20.20948,0.467482232 C20.7798504,0.772519644 21.2274804,1.22014965 21.5325178,1.79052002 C21.8375552,2.36089039 22,2.92664131 22,4.4867991 L22,17.5132009 C22,19.0733587 21.8375552,19.6391096 21.5325178,20.20948 C21.2274804,20.7798504 20.7798504,21.2274804 20.20948,21.5325178 C19.6391096,21.8375552 19.0733587,22 17.5132009,22 L4.4867991,22 C2.92664131,22 2.36089039,21.8375552 1.79052002,21.5325178 C1.22014965,21.2274804 0.772519644,20.7798504 0.467482232,20.20948 C0.16244482,19.6391096 -3.73873021e-16,19.0733587 -5.64937246e-16,17.5132009 L1.20848036e-16,4.4867991 C-7.0216189e-17,2.92664131 0.16244482,2.36089039 0.467482232,1.79052002 C0.772519644,1.22014965 1.22014965,0.772519644 1.79052002,0.467482232 C2.36089039,0.16244482 2.92664131,-3.73873021e-16 4.4867991,-5.64937246e-16 L17.5132009,1.81272054e-16 Z M17.047,9.585 C16.5112903,9.48880528 15.9641347,9.47397174 15.424,9.541 C14.258,9.761 13.459,10.505 13.232,11.571 C13.1709186,12.025701 13.1834117,12.4872689 13.269,12.938 C13.3841565,13.3332636 13.5845215,13.6984944 13.856,14.008 C14.29,14.476 14.766,14.77 15.868,15.246 C16.825,15.663 17.167,15.863 17.338,16.101 C17.5891675,16.4721738 17.5395359,16.9697518 17.22,17.284 C16.758,17.7 15.824,17.75 15.14,17.39 C14.822,17.187 14.546,16.924 14.33,16.614 L14.201,16.424 L13.588,16.78 L12.796,17.218 C12.727,17.254 12.662,17.296 12.599,17.342 C12.575,17.383 12.958,17.949 13.155,18.167 C13.740714,18.7668269 14.5027742,19.1637989 15.33,19.3 C15.8698478,19.3733505 16.4167382,19.3790613 16.958,19.317 C18.143,19.117 18.981,18.514 19.323,17.625 C19.631,16.808 19.53,15.702 19.075,15.018 C18.668,14.401 18.013,13.967 16.483,13.308 C15.652,12.949 15.387,12.773 15.245,12.477 C15.1790095,12.3542984 15.1469082,12.2162282 15.152,12.077 C15.149,11.518 15.566,11.178 16.214,11.222 C16.6302176,11.2374466 17.0093472,11.4655286 17.218,11.826 C17.309,11.961 17.391,12.05 17.411,12.036 C17.974,11.687 18.897,11.063 18.897,11.036 C18.754,10.788 18.582,10.558 18.384,10.352 C18.024,9.969 17.559,9.701 17.047,9.582 Z M12.019,9.598 L6.462,9.598 L6.284,9.599 L5.59906706,9.59961808 C4.94106122,9.6012449 4.53085714,9.60528571 4.524,9.613 C4.50183662,9.90711209 4.49516073,10.2021865 4.504,10.497 L4.504,11.352 L7.286,11.352 L7.286,19.259 L9.254,19.259 L9.254,11.354 L12.029,11.354 L12.029,10.478 L12.019,9.598 Z"></path>
        </g>
    </g>
</svg>