<?xml version="1.0" encoding="UTF-8"?>
<svg width="24px" height="24px" viewBox="0 0 24 24" version="1.1" xmlns="http://www.w3.org/2000/svg" xmlns:xlink="http://www.w3.org/1999/xlink">
    <title>typescript-2</title>
    <g id="typescript-2" stroke="none" stroke-width="1" fill="none" fill-rule="evenodd">
        <g transform="translate(1.5, 1.5)">
            <path d="M4.4867991,-5.64937246e-16 L16.5132009,1.81272054e-16 C18.0733587,-1.05324284e-16 18.6391096,0.16244482 19.20948,0.467482232 C19.7798504,0.772519644 20.2274804,1.22014965 20.5325178,1.79052002 C20.8375552,2.36089039 21,2.92664131 21,4.4867991 L21,16.5132009 C21,18.0733587 20.8375552,18.6391096 20.5325178,19.20948 C20.2274804,19.7798504 19.7798504,20.2274804 19.20948,20.5325178 C18.6391096,20.8375552 18.0733587,21 16.5132009,21 L4.4867991,21 C2.92664131,21 2.36089039,20.8375552 1.79052002,20.5325178 C1.22014965,20.2274804 0.772519644,19.7798504 0.467482232,19.20948 C0.16244482,18.6391096 -3.73873021e-16,18.0733587 -5.64937246e-16,16.5132009 L1.20848036e-16,4.4867991 C-7.0216189e-17,2.92664131 0.16244482,2.36089039 0.467482232,1.79052002 C0.772519644,1.22014965 1.22014965,0.772519644 1.79052002,0.467482232 C2.36089039,0.16244482 2.92664131,-3.73873021e-16 4.4867991,-5.64937246e-16 Z" id="Rectangle" stroke="#1A73E8"></path>
            <path d="M16.547,9.085 L16.547,9.082 C17.059,9.201 17.524,9.469 17.884,9.852 C18.082,10.058 18.254,10.288 18.397,10.536 C18.397,10.563 17.474,11.187 16.911,11.536 C16.891,11.55 16.809,11.461 16.718,11.326 C16.5093472,10.9655286 16.1302176,10.7374466 15.714,10.722 C15.066,10.678 14.649,11.018 14.652,11.577 C14.6469082,11.7162282 14.6790095,11.8542984 14.745,11.977 C14.887,12.273 15.152,12.449 15.983,12.808 C17.513,13.467 18.168,13.901 18.575,14.518 C19.03,15.202 19.131,16.308 18.823,17.125 C18.481,18.014 17.643,18.617 16.458,18.817 C15.9167382,18.8790613 15.3698478,18.8733505 14.83,18.8 C14.0027742,18.6637989 13.240714,18.2668269 12.655,17.667 C12.458,17.449 12.075,16.883 12.099,16.842 C12.162,16.796 12.227,16.754 12.296,16.718 L13.088,16.28 L13.701,15.924 L13.83,16.114 C14.046,16.424 14.322,16.687 14.64,16.89 C15.324,17.25 16.258,17.2 16.72,16.784 C17.0395359,16.4697518 17.0891675,15.9721738 16.838,15.601 C16.667,15.363 16.325,15.163 15.368,14.746 C14.266,14.27 13.79,13.976 13.356,13.508 C13.0845215,13.1984944 12.8841565,12.8332636 12.769,12.438 C12.6834117,11.9872689 12.6709186,11.525701 12.732,11.071 C12.959,10.005 13.758,9.261 14.924,9.041 C15.4641347,8.97397174 16.0112903,8.98880528 16.547,9.085 L16.547,9.085 Z M11.519,9.097 L11.529,9.978 L11.529,10.854 L8.754,10.854 L8.754,18.759 L6.786,18.759 L6.786,10.852 L4.004,10.852 L4.004,9.997 C3.99516073,9.70218649 4.00183662,9.40711209 4.024,9.113 C4.032,9.104 4.589,9.1 5.448,9.099 L5.784,9.099 L5.962,9.098 L11.519,9.098 L11.519,9.097 Z" id="Shape" fill="#1A73E8" fill-rule="nonzero"></path>
        </g>
    </g>
</svg>