<?xml version="1.0" encoding="UTF-8"?>
<svg width="24px" height="24px" viewBox="0 0 24 24" version="1.1" xmlns="http://www.w3.org/2000/svg" xmlns:xlink="http://www.w3.org/1999/xlink">
    <title>vscode</title>
    <g id="vscode" stroke="none" stroke-width="1" fill="none" fill-rule="evenodd">
        <g transform="translate(1, 1)" fill="#007ACC" fill-rule="nonzero" id="Shape">
            <path d="M21.2208434,2.32668639 L16.6925752,0.136368795 C16.1680638,-0.117544698 15.5411889,-0.0103613848 15.129681,0.403593071 L6.45813896,8.35581894 L2.68152658,5.47348261 C2.32997274,5.20543236 1.83825471,5.22751307 1.51187673,5.526006 L0.300060821,6.63360455 C0.109112545,6.80809684 0,7.05541506 0,7.31482282 C0,7.57423058 0.108430794,7.82169667 0.299144167,7.99644836 L3.57434708,11.0004178 L0.299144167,14.0043873 C0.108430794,14.1791389 0,14.426605 0,14.6860128 C0,14.9454206 0.109112545,15.1927388 0.300060821,15.3672311 L1.51279339,16.4739082 C1.83917136,16.7724011 2.33088939,16.7944818 2.68244324,16.5264315 L6.45905561,13.6440952 L15.1305976,21.5963211 C15.5416778,22.0103777 16.1683849,22.1175952 16.6925752,21.8635454 L21.2226767,19.6732278 C21.6982823,19.4424745 22.0003906,18.9582841 22,18.4274098 L22,3.5725044 C22,3.04121205 21.6971628,2.55691308 21.2208434,2.32668639 Z M16.5037445,16.0205483 L9.9240058,11.0004178 L16.5037445,5.98028727 L16.5037445,16.0205483 L16.5037445,16.0205483 Z"></path>
        </g>
    </g>
</svg>