<?xml version="1.0" encoding="UTF-8"?>
<svg width="24px" height="24px" viewBox="0 0 24 24" version="1.1" xmlns="http://www.w3.org/2000/svg" xmlns:xlink="http://www.w3.org/1999/xlink">
    <title>xml-d</title>
    <g id="xml-d" stroke="none" stroke-width="1" fill="none" fill-rule="evenodd">
        <g id="xml" transform="translate(1, 0)" fill="#FFFFFF" fill-rule="nonzero">
            <path d="M22,6.75 L22,21 C22,22.6568542 20.5928949,24 18.8571429,24 L18.8571429,22.5 C19.7250189,22.5 20.4285714,21.8284271 20.4285714,21 L20.4285714,6.75 L17.2857143,6.75 C15.9839002,6.75 14.9285714,5.74264069 14.9285714,4.5 L14.9285714,1.5 L6.28571429,1.5 C5.41783825,1.5 4.71428571,2.17157288 4.71428571,3 L4.71428571,16.5 L3.14285714,16.5 L3.14285714,3 C3.14285714,1.34314575 4.54996221,0 6.28571429,0 L14.9285714,0 L22,6.75 Z M5.54242857,17.775 L4.13914286,17.775 L2.84585714,19.9335 L2.78928571,19.9335 L1.48185714,17.775 L0.0188571429,17.775 L1.947,20.7495 L0,23.775 L1.353,23.775 L2.69342857,21.6525 L2.74842857,21.6525 L4.08414286,23.775 L5.511,23.775 L3.54042857,20.787 L5.54242857,17.775 Z M7.04157143,23.7735 L7.04157143,19.7835 L7.10128571,19.7835 L8.59728571,23.022 L9.40814286,23.022 L10.8947143,19.782 L10.9544286,19.782 L10.9544286,23.7735 L12.078,23.7735 L12.078,17.775 L10.8208571,17.775 L9.02942857,21.669 L8.99014286,21.669 L7.19714286,17.775 L5.93057143,17.775 L5.93057143,23.7735 L7.04157143,23.7735 Z M14.443,22.7625 L17.1081429,22.7625 L17.1081429,23.7735 L13.2,23.7735 L13.2,17.775 L14.443,17.775 L14.443,22.7625 Z" id="Shape"></path>
        </g>
    </g>
</svg>