<?xml version="1.0" encoding="UTF-8"?>
<svg width="24px" height="24px" viewBox="0 0 24 24" version="1.1" xmlns="http://www.w3.org/2000/svg" xmlns:xlink="http://www.w3.org/1999/xlink">
    <title>yaml-d</title>
    <g id="yaml-d" stroke="none" stroke-width="1" fill="none" fill-rule="evenodd">
        <g id="yaml" transform="translate(1, 0)" fill="#FFFFFF" fill-rule="nonzero">
            <path d="M22,6.75 L22,21 C22,22.6568542 20.5928949,24 18.8571429,24 L18.8571429,22.5 C19.7250189,22.5 20.4285714,21.8284271 20.4285714,21 L20.4285714,6.75 L17.2857143,6.75 C15.9839002,6.75 14.9285714,5.74264069 14.9285714,4.5 L14.9285714,1.5 L6.28571429,1.5 C5.41783825,1.5 4.71428571,2.17157288 4.71428571,3 L4.71428571,16.5 L3.14285714,16.5 L3.14285714,3 C3.14285714,1.34314575 4.54996221,0 6.28571429,0 L14.9285714,0 L22,6.75 Z M3.35185714,23.7735 L3.35185714,21.471 L5.456,17.775 L4.11085714,17.775 L2.76728571,20.319 L2.717,20.319 L1.37657143,17.775 L0,17.775 L2.10414286,21.4935 L2.10414286,23.7735 L3.35185714,23.7735 Z M6.94571429,23.7735 L6.94571429,19.7835 L7.00542857,19.7835 L8.50142857,23.022 L9.31228571,23.022 L10.7988571,19.782 L10.8585714,19.782 L10.8585714,23.7735 L11.9821429,23.7735 L11.9821429,17.775 L10.725,17.775 L8.93357143,21.669 L8.89428571,21.669 L7.10285714,17.775 L5.83785714,17.775 L5.83785714,23.7735 L6.94571429,23.7735 Z M14.3471429,22.7625 L17.0122857,22.7625 L17.0122857,23.7735 L13.1025714,23.7735 L13.1025714,17.775 L14.3455714,17.775 L14.3455714,22.7625 L14.3471429,22.7625 Z" id="Shape"></path>
        </g>
    </g>
</svg>